<?xml version="1.0" encoding="UTF-8" standalone="no"?>
<!-- Generated by IcoMoon.io -->

<svg
   xmlns:dc="http://purl.org/dc/elements/1.1/"
   xmlns:cc="http://creativecommons.org/ns#"
   xmlns:rdf="http://www.w3.org/1999/02/22-rdf-syntax-ns#"
   xmlns:svg="http://www.w3.org/2000/svg"
   xmlns="http://www.w3.org/2000/svg"
   xmlns:sodipodi="http://sodipodi.sourceforge.net/DTD/sodipodi-0.dtd"
   xmlns:inkscape="http://www.inkscape.org/namespaces/inkscape"
   version="1.1"
   width="32"
   height="32"
   viewBox="0 0 32 32"
   id="svg2"
   inkscape:version="0.48.1 "
   sodipodi:docname="addEBook_w.svg">
  <metadata
     id="metadata12">
    <rdf:RDF>
      <cc:Work
         rdf:about="">
        <dc:format>image/svg+xml</dc:format>
        <dc:type
           rdf:resource="http://purl.org/dc/dcmitype/StillImage" />
        <dc:title />
      </cc:Work>
    </rdf:RDF>
  </metadata>
  <defs
     id="defs10" />
  <sodipodi:namedview
     pagecolor="#ffffff"
     bordercolor="#666666"
     borderopacity="1"
     objecttolerance="10"
     gridtolerance="10"
     guidetolerance="10"
     inkscape:pageopacity="0"
     inkscape:pageshadow="2"
     inkscape:window-width="1414"
     inkscape:window-height="1024"
     id="namedview8"
     showgrid="false"
     inkscape:zoom="18.3125"
     inkscape:cx="23.677914"
     inkscape:cy="13.261241"
     inkscape:window-x="1903"
     inkscape:window-y="0"
     inkscape:window-maximized="0"
     inkscape:current-layer="svg2"
     showguides="true"
     inkscape:guide-bbox="true" />
  <rect
     style="fill:#000000;fill-opacity:1;fill-rule:nonzero;stroke:#000000;stroke-width:2.98950338;stroke-miterlimit:4;stroke-opacity:1;stroke-dasharray:none"
     id="rect3017"
     width="30.182299"
     height="29.710144"
     x="1.1642439"
     y="34.728546" />
  <g
     style="fill:#ffffff"
     id="g3007"
     transform="matrix(1.0683652,0,0,1.2229713,-1.1497268,-4.8692837)" />
  <g
     id="g4" />
  <path
     d="M 69.283276,4.5460751 V 30.546075 h -21 c -1.657,0 -3,-1.343 -3,-3 0,-1.657 1.343,-3 3,-3 h 19 V 0.54607509 h -20 c -2.2,0 -4,1.80000001 -4,4.00000001 V 28.546075 c 0,2.2 1.8,4 4,4 h 24 V 4.5460751 h -2 z m -20,21.9999999 h 18 v 2 h -18 z"
     id="path6"
     inkscape:connector-curvature="0"
     style="fill:#000000" />
  <g
     style="font-size:16px;font-style:normal;font-weight:normal;line-height:125%;letter-spacing:0px;word-spacing:0px;fill:#000000;fill-opacity:1;stroke:none;font-family:HAW Frutiger Next Regular;-inkscape-font-specification:HAW Frutiger Next Regular"
     id="text2991" />
  <g
     style="font-size:16px;font-style:normal;font-weight:normal;line-height:125%;letter-spacing:0px;word-spacing:0px;fill:#ffffff;fill-opacity:1;stroke:none;font-family:HAW Frutiger Next Regular;-inkscape-font-specification:HAW Frutiger Next Regular"
     id="text2995"
     transform="matrix(0.81188539,0,0,0.83628464,3.1088015,3.0026651)">
    <path
       id="path3012"
       d="m 19.328324,15.705172 0,-9.2958989 -1.775879,1.5200196 -0.60791,-0.8320313 2.527832,-2.0639648 1.104004,0 0,10.6718754 z m -5.518124,-4.663423 0,3.439941 -1.056153,0 0,-3.439941 -3.4877926,0 0,-0.959961 3.4877926,0 0,-3.4399413 1.056153,0 0,3.4399413 3.503906,0 0,0.959961 z M 30.787982,17.434044 25.406627,2.7742869 C 24.982486,1.7959099 23.854292,0.99608665 22.899174,0.99608665 H 8.9901273 c -0.9551185,0 -2.0833121,0.79982325 -2.5095898,1.77820025 L 1.1013187,17.434044 c -0.4273461,0.978377 -0.64742933,2.661185 -0.49037965,3.741069 l 1.16238135,7.213085 c 0.1570497,1.078661 1.0651601,1.960423 2.0192102,1.960423 H 28.099976 c 0.955118,0 1.863229,-0.882985 2.020278,-1.960423 l 1.162382,-7.213085 c 0.151707,-1.078661 -0.06624,-2.762692 -0.493585,-3.741069 z m -2.331172,5.137702 -0.441235,2.9388 c -0.133546,1.128803 -1.022426,2.052146 -1.972202,2.052146 H 5.8448602 c -0.9519134,0 -1.8397249,-0.923343 -1.9722022,-2.052146 l -0.4423032,-2.9388 C 3.2989459,21.442944 3.9688109,20.5196 4.922861,20.5196 h 22.044648 c 0.95405,0.0024 1.623915,0.923344 1.490369,2.052146 z"
       style="fill:#ffffff"
       inkscape:connector-curvature="0" />
  </g>
  <path
     sodipodi:type="star"
     style="fill:none;stroke:#000000;stroke-width:2;stroke-miterlimit:4;stroke-opacity:1;stroke-dasharray:none"
     id="path3029"
     sodipodi:sides="5"
     sodipodi:cx="33.74744"
     sodipodi:cy="46.25256"
     sodipodi:r1="13.256472"
     sodipodi:r2="10.724711"
     sodipodi:arg1="0.69790282"
     sodipodi:arg2="1.3262214"
     inkscape:flatsided="true"
     inkscape:rounded="0"
     inkscape:randomized="0"
     d="M 43.904437,54.771331 28.784292,58.544882 20.523049,45.330862 30.537466,33.390596 44.987958,39.225127 z"
     inkscape:transform-center-x="0.99193673"
     inkscape:transform-center-y="-0.28482034"
     transform="translate(7.7542662,3.003413)" />
  <rect
     style="fill:none;stroke:#ffffff;stroke-width:1.99999988;stroke-miterlimit:4;stroke-opacity:1;stroke-dasharray:none"
     id="rect3037"
     width="29.488052"
     height="29.269617"
     x="1.1467597"
     y="1.3651891"
     ry="4.6416383"
     rx="4.1501708" />
</svg>
