<?xml version="1.0" encoding="UTF-8" standalone="no"?>
<!-- Created with Inkscape (http://www.inkscape.org/) -->

<svg
   xmlns:dc="http://purl.org/dc/elements/1.1/"
   xmlns:cc="http://creativecommons.org/ns#"
   xmlns:rdf="http://www.w3.org/1999/02/22-rdf-syntax-ns#"
   xmlns:svg="http://www.w3.org/2000/svg"
   xmlns="http://www.w3.org/2000/svg"
   xmlns:sodipodi="http://sodipodi.sourceforge.net/DTD/sodipodi-0.dtd"
   xmlns:inkscape="http://www.inkscape.org/namespaces/inkscape"
   width="32"
   height="32"
   id="svg2"
   version="1.1"
   inkscape:version="0.48.1 "
   sodipodi:docname="B.svg">
  <defs
     id="defs4" />
  <sodipodi:namedview
     id="base"
     pagecolor="#ffffff"
     bordercolor="#666666"
     borderopacity="1.0"
     inkscape:pageopacity="0.0"
     inkscape:pageshadow="2"
     inkscape:zoom="7.8549247"
     inkscape:cx="51.120997"
     inkscape:cy="27.004168"
     inkscape:document-units="px"
     inkscape:current-layer="layer1"
     showgrid="false"
     inkscape:window-width="935"
     inkscape:window-height="786"
     inkscape:window-x="2015"
     inkscape:window-y="37"
     inkscape:window-maximized="0"
     width="32px"
     showguides="true"
     inkscape:guide-bbox="true">
    <sodipodi:guide
       orientation="0,1"
       position="3.1507288,36.818516"
       id="guide3842" />
    <sodipodi:guide
       orientation="1,0"
       position="16.023706,22.415185"
       id="guide2991" />
    <sodipodi:guide
       orientation="0,1"
       position="20.614768,15.753644"
       id="guide2993" />
  </sodipodi:namedview>
  <metadata
     id="metadata7">
    <rdf:RDF>
      <cc:Work
         rdf:about="">
        <dc:format>image/svg+xml</dc:format>
        <dc:type
           rdf:resource="http://purl.org/dc/dcmitype/StillImage" />
        <dc:title />
      </cc:Work>
    </rdf:RDF>
  </metadata>
  <g
     inkscape:label="Ebene 1"
     inkscape:groupmode="layer"
     id="layer1"
     transform="translate(0,-1020.3619)">
    <rect
       style="fill:#1a1a1a;fill-opacity:1;fill-rule:nonzero;stroke:#ffffff;stroke-width:2;stroke-miterlimit:4;stroke-opacity:1;stroke-dasharray:none"
       id="rect15313"
       width="40"
       height="37.207474"
       x="50.813931"
       y="1015.5434"
       rx="4.1501708"
       ry="4.6416383" />
    <g
       transform="matrix(1.1715252,0,0,0.85358813,-1.8339564,-2.9968292)"
       style="font-size:29.02571678px;font-style:normal;font-weight:normal;line-height:125%;letter-spacing:0px;word-spacing:0px;fill:#ffffff;fill-opacity:1;stroke:none;font-family:HAW Frutiger Next Regular;-inkscape-font-specification:HAW Frutiger Next Regular"
       id="text3838">
      <g
         transform="scale(0.85358813,1.1715252)"
         style="font-size:27.40637398px;line-height:125%;fill:#ffffff;font-family:HAW Frutiger Next Regular;-inkscape-font-specification:HAW Frutiger Next Regular"
         id="text2987">
        <path
           d="m 21.155694,1043.7143 c -1.2e-5,-0.6212 -0.123377,-1.1191 -0.370096,-1.4938 -0.246742,-0.3747 -0.571117,-0.667 -0.973124,-0.8769 -0.402028,-0.2099 -0.854228,-0.3514 -1.356602,-0.4245 -0.502392,-0.073 -1.000314,-0.1095 -1.493768,-0.1095 l -1.753881,0 0,5.7275 1.918647,0 c 0.456653,0 0.927114,-0.041 1.411385,-0.1234 0.484252,-0.082 0.918191,-0.2283 1.301819,-0.4383 0.383607,-0.2099 0.698782,-0.4976 0.945524,-0.8631 0.246719,-0.3655 0.370084,-0.8315 0.370096,-1.398 z m -0.383896,-7.9481 c -1.2e-5,-0.475 -0.09592,-0.8769 -0.287714,-1.2056 -0.19182,-0.3287 -0.438411,-0.589 -0.739775,-0.7808 -0.301384,-0.1918 -0.65308,-0.3288 -1.055088,-0.4111 -0.402027,-0.082 -0.804045,-0.1233 -1.206055,-0.1233 l -2.274943,0 0,5.234 1.946248,0 c 0.456653,0 0.899653,-0.041 1.329001,-0.1234 0.42933,-0.082 0.812948,-0.2237 1.150854,-0.4244 0.337885,-0.2007 0.611938,-0.4793 0.822158,-0.8356 0.210198,-0.3562 0.315302,-0.7995 0.315314,-1.3298 z m 4.494685,8.1129 c -1.6e-5,1.0778 -0.210086,1.9547 -0.630209,2.6308 -0.420155,0.676 -0.97286,1.2013 -1.658116,1.5757 -0.685284,0.3744 -1.461859,0.6256 -2.329726,0.7536 -0.86789,0.1279 -1.749569,0.1919 -2.64504,0.1919 l -6.686827,0 0,-18.2798 7.454621,0 c 0.748825,0 1.484138,0.073 2.205942,0.2191 0.72178,0.1461 1.365928,0.3881 1.932447,0.726 0.566491,0.3379 1.023292,0.7993 1.370402,1.3842 0.347081,0.5849 0.520629,1.3156 0.520644,2.1921 -1.5e-5,1.1699 -0.319789,2.1111 -0.959323,2.8236 -0.639563,0.7126 -1.516642,1.1966 -2.631239,1.452 1.151398,0.2013 2.11532,0.6627 2.89177,1.3842 0.77642,0.7215 1.164638,1.7037 1.164654,2.9466 z"
           style="font-weight:bold;fill:#ffffff;-inkscape-font-specification:'HAW Frutiger Next Regular, Bold'"
           id="path2992" />
      </g>
    </g>
    <rect
       style="fill:none;stroke:#ffffff;stroke-width:1.99999988000000010;stroke-miterlimit:4;stroke-opacity:1;stroke-dasharray:none"
       id="rect3037"
       width="29.488052"
       height="29.269617"
       x="1.2796803"
       y="1021.8834"
       ry="4.6416383"
       rx="4.1501708" />
  </g>
</svg>
