<?xml version="1.0" encoding="UTF-8" standalone="no"?>
<!-- Generated by IcoMoon.io -->

<svg
   xmlns:dc="http://purl.org/dc/elements/1.1/"
   xmlns:cc="http://creativecommons.org/ns#"
   xmlns:rdf="http://www.w3.org/1999/02/22-rdf-syntax-ns#"
   xmlns:svg="http://www.w3.org/2000/svg"
   xmlns="http://www.w3.org/2000/svg"
   xmlns:sodipodi="http://sodipodi.sourceforge.net/DTD/sodipodi-0.dtd"
   xmlns:inkscape="http://www.inkscape.org/namespaces/inkscape"
   version="1.1"
   width="32"
   height="32"
   viewBox="0 0 32 32"
   id="svg9469"
   inkscape:version="0.48.1 "
   sodipodi:docname="Bestellung ablehnen.svg">
  <metadata
     id="metadata9479">
    <rdf:RDF>
      <cc:Work
         rdf:about="">
        <dc:format>image/svg+xml</dc:format>
        <dc:type
           rdf:resource="http://purl.org/dc/dcmitype/StillImage" />
        <dc:title></dc:title>
      </cc:Work>
    </rdf:RDF>
  </metadata>
  <defs
     id="defs9477" />
  <sodipodi:namedview
     pagecolor="#ffffff"
     bordercolor="#666666"
     borderopacity="1"
     objecttolerance="10"
     gridtolerance="10"
     guidetolerance="10"
     inkscape:pageopacity="0"
     inkscape:pageshadow="2"
     inkscape:window-width="817"
     inkscape:window-height="723"
     id="namedview9475"
     showgrid="false"
     inkscape:zoom="9.15625"
     inkscape:cx="16"
     inkscape:cy="16"
     inkscape:window-x="2140"
     inkscape:window-y="237"
     inkscape:window-maximized="0"
     inkscape:current-layer="svg9469" />
  <g
     id="g9471" />
  <path
     d="m 9.1947756,22.680304 q 0,0.330983 -0.2526092,0.573514 -0.2526091,0.242532 -0.5991083,0.241818 -0.3464993,-7.13e-4 -0.5991084,-0.241818 -0.2526091,-0.241104 -0.2526091,-0.573514 0,-0.332411 0.2526091,-0.573516 0.2526091,-0.241104 0.5991084,-0.241817 0.3464992,-7.14e-4 0.5991083,0.241817 0.2526092,0.242532 0.2526092,0.573516 z M 24.524199,15.34302 q 0,0.44583 -0.286141,1.031471 -0.286141,0.585642 -0.711627,0.598482 0.199703,0.216851 0.332341,0.604901 0.132638,0.388051 0.133383,0.706908 0,0.878819 -0.70492,1.51582 0.239196,0.407309 0.239196,0.878819 0,0.471509 -0.233235,0.936598 -0.233236,0.465089 -0.631896,0.669101 0.06632,0.382344 0.06632,0.713328 0,1.08283 -0.652015,1.604985 -0.652015,0.522156 -1.809993,0.522156 h -1.703435 q -1.742928,0 -4.55069,-0.930179 -0.06632,-0.02568 -0.385993,-0.134105 -0.319673,-0.108426 -0.472431,-0.159072 -0.152758,-0.05065 -0.465725,-0.146232 -0.312967,-0.09559 -0.505963,-0.139812 -0.192997,-0.04423 -0.438899,-0.08275 -0.245902,-0.03852 -0.419525,-0.03852 h -0.425486 v -8.152617 h 0.425486 q 0.213115,0 0.472432,-0.114845 0.259315,-0.114846 0.532044,-0.343825 0.272728,-0.228977 0.512669,-0.452249 0.239941,-0.223271 0.532044,-0.560675 0.292103,-0.337404 0.459019,-0.541415 0.166915,-0.204012 0.419525,-0.522156 0.252608,-0.318144 0.30626,-0.382343 0.731747,-0.865979 1.024594,-1.159156 0.545458,-0.547835 0.792105,-1.3945551 0.246648,-0.8467192 0.406113,-1.5985662 0.159463,-0.751847 0.505963,-1.08283 1.277203,0 1.703435,0.59848 0.426231,0.598482 0.425486,1.8468042 0,0.7518481 -0.638602,2.0443961 -0.638602,1.292549 -0.638602,2.031556 h 4.684074 q 0.665427,0 1.184058,0.490769 0.518631,0.490769 0.518631,1.139897 z m 1.703436,-0.01284 q 0,-1.311808 -1.011182,-2.279792 -1.011182,-0.967986 -2.394943,-0.967986 h -2.342037 q 0.638601,-1.261162 0.638601,-2.4459991 0,-1.5029802 -0.465724,-2.3689592 -0.465725,-0.878819 -1.356935,-1.293262 -0.891211,-0.414443 -2.008952,-0.41373 -0.67884,0 -1.197471,0.47151 -0.452312,0.420149 -0.718333,1.04431 -0.266023,0.624162 -0.339049,1.152737 -0.07302,0.528575 -0.233235,1.07641 -0.160209,0.5478352 -0.412817,0.8153333 -0.638603,0.637002 -1.424001,1.617827 -1.344268,1.668472 -1.82266,1.974489 H 7.4928309 q -0.704921,0 -1.204178,0.477929 -0.4992569,0.477929 -0.4992569,1.152737 v 8.152616 q 0,0.674807 0.4992569,1.152736 0.499257,0.477929 1.204178,0.477929 h 3.8323561 q 0.292847,0 1.836073,0.509316 1.703435,0.560675 2.967226,0.841013 1.263791,0.280337 2.660965,0.280337 h 1.490319 q 1.862899,0 3.014171,-1.006504 1.151272,-1.006505 1.137859,-2.751303 v -0.06349 q 0.798066,-0.980825 0.798066,-2.267667 0,-0.280338 -0.04024,-0.547835 0.505962,-0.85314 0.505962,-1.833964 0,-0.45867 -0.11997,-0.87882 0.652015,-0.942304 0.652015,-2.076495 z"
     id="path9473"
     inkscape:connector-curvature="0"
     style="fill:#000000" />
  <rect
     style="fill:none;stroke:#000000;stroke-width:1.99999988;stroke-miterlimit:4;stroke-opacity:1;stroke-dasharray:none"
     id="rect3037"
     width="29.488052"
     height="29.269617"
     x="1.4197968"
     y="1.4197989"
     ry="4.6416383"
     rx="4.1501708" />
</svg>
