<?xml version="1.0" encoding="UTF-8" standalone="no"?>
<!-- Generated by IcoMoon.io -->

<svg
   xmlns:dc="http://purl.org/dc/elements/1.1/"
   xmlns:cc="http://creativecommons.org/ns#"
   xmlns:rdf="http://www.w3.org/1999/02/22-rdf-syntax-ns#"
   xmlns:svg="http://www.w3.org/2000/svg"
   xmlns="http://www.w3.org/2000/svg"
   xmlns:sodipodi="http://sodipodi.sourceforge.net/DTD/sodipodi-0.dtd"
   xmlns:inkscape="http://www.inkscape.org/namespaces/inkscape"
   version="1.1"
   width="32"
   height="32"
   viewBox="0 0 32 32"
   id="svg3015"
   inkscape:version="0.48.1 "
   sodipodi:docname="Ak.svg">
  <metadata
     id="metadata3025">
    <rdf:RDF>
      <cc:Work
         rdf:about="">
        <dc:format>image/svg+xml</dc:format>
        <dc:type
           rdf:resource="http://purl.org/dc/dcmitype/StillImage" />
        <dc:title></dc:title>
      </cc:Work>
    </rdf:RDF>
  </metadata>
  <defs
     id="defs3023" />
  <sodipodi:namedview
     pagecolor="#ffffff"
     bordercolor="#666666"
     borderopacity="1"
     objecttolerance="10"
     gridtolerance="10"
     guidetolerance="10"
     inkscape:pageopacity="0"
     inkscape:pageshadow="2"
     inkscape:window-width="859"
     inkscape:window-height="682"
     id="namedview3021"
     showgrid="false"
     inkscape:zoom="9.15625"
     inkscape:cx="16"
     inkscape:cy="16"
     inkscape:window-x="1987"
     inkscape:window-y="146"
     inkscape:window-maximized="0"
     inkscape:current-layer="svg3015" />
  <g
     id="g3017" />
  <path
     d="m 27.975584,15.360656 q 0,-2.233037 -0.950259,-4.264892 -0.95026,-2.0318558 -2.555841,-3.5066538 -1.605581,-1.474798 -3.817618,-2.347654 -2.212037,-0.872857 -4.643096,-0.872857 -2.431059,0 -4.643096,0.872857 -2.2120369,0.872856 -3.8176179,2.347654 -1.6055811,1.474798 -2.5558408,3.5066538 -0.9502596,2.031855 -0.9502596,4.264892 0,2.604942 1.2547965,4.909315 1.2547965,2.304372 3.5296605,3.864132 0.6701556,0.457668 1.4877803,0.357478 0.817625,-0.10019 1.301044,-0.715758 0.498254,-0.601141 0.382198,-1.352968 Q 11.88138,21.671029 11.226058,21.213361 9.6990111,20.154552 8.8656797,18.622846 8.0323482,17.091139 8.0323482,15.359854 q 0,-1.488424 0.6308886,-2.841391 0.6308887,-1.352967 1.7059302,-2.340441 1.075041,-0.9874728 2.547987,-1.5669728 1.472946,-0.579499 3.093361,-0.579499 1.620415,0 3.093361,0.579499 1.472946,0.5795 2.547988,1.5669728 1.075041,0.987474 1.70593,2.340441 0.630888,1.352967 0.630888,2.841391 0,1.732087 -0.833331,3.262992 -0.833332,1.530904 -2.360379,2.590515 -0.654449,0.457668 -0.771377,1.209494 -0.116928,0.751827 0.382198,1.352968 0.48342,0.615568 1.308898,0.715758 0.825478,0.10019 1.479927,-0.357478 2.274864,-1.55976 3.52966,-3.864132 1.254797,-2.304373 1.254797,-4.909315 z m -9.972927,10.992056 v -9.160581 q 0,-0.744613 -0.592494,-1.288044 -0.592494,-0.543431 -1.402266,-0.544233 -0.809771,-8.01e-4 -1.402265,0.544233 -0.592495,0.545034 -0.592495,1.288044 v 9.160581 q 0,0.744613 0.592495,1.288044 0.592494,0.543431 1.402265,0.544233 0.809772,8.01e-4 1.402266,-0.544233 0.592494,-0.545034 0.592494,-1.288044 z"
     id="path3019"
     inkscape:connector-curvature="0"
     style="fill:#000000" />
  <rect
     style="fill:none;stroke:#000000;stroke-width:1.99999988;stroke-miterlimit:4;stroke-opacity:1;stroke-dasharray:none"
     id="rect3037"
     width="29.488052"
     height="29.269617"
     x="1.3105811"
     y="1.529014"
     ry="4.6416383"
     rx="4.1501708" />
</svg>
