<?xml version="1.0" encoding="UTF-8" standalone="no"?>
<!-- Generated by IcoMoon.io -->

<svg
   xmlns:dc="http://purl.org/dc/elements/1.1/"
   xmlns:cc="http://creativecommons.org/ns#"
   xmlns:rdf="http://www.w3.org/1999/02/22-rdf-syntax-ns#"
   xmlns:svg="http://www.w3.org/2000/svg"
   xmlns="http://www.w3.org/2000/svg"
   xmlns:sodipodi="http://sodipodi.sourceforge.net/DTD/sodipodi-0.dtd"
   xmlns:inkscape="http://www.inkscape.org/namespaces/inkscape"
   version="1.1"
   width="32"
   height="32"
   viewBox="0 0 32 32"
   id="svg2"
   inkscape:version="0.48.1 "
   sodipodi:docname="Bestellung stornieren.svg">
  <metadata
     id="metadata12">
    <rdf:RDF>
      <cc:Work
         rdf:about="">
        <dc:format>image/svg+xml</dc:format>
        <dc:type
           rdf:resource="http://purl.org/dc/dcmitype/StillImage" />
      </cc:Work>
    </rdf:RDF>
  </metadata>
  <defs
     id="defs10" />
  <sodipodi:namedview
     pagecolor="#ffffff"
     bordercolor="#666666"
     borderopacity="1"
     objecttolerance="10"
     gridtolerance="10"
     guidetolerance="10"
     inkscape:pageopacity="0"
     inkscape:pageshadow="2"
     inkscape:window-width="835"
     inkscape:window-height="684"
     id="namedview8"
     showgrid="false"
     inkscape:zoom="9.15625"
     inkscape:cx="16"
     inkscape:cy="16"
     inkscape:window-x="1894"
     inkscape:window-y="215"
     inkscape:window-maximized="0"
     inkscape:current-layer="svg2" />
  <g
     id="g4" />
  <path
     d="m 24.88976,16.274717 q 0,-2.532686 -1.368364,-4.640762 L 11.665757,23.478997 q 2.153809,1.399805 4.670403,1.399805 1.745237,0 3.325813,-0.684486 1.580576,-0.684486 2.727924,-1.832344 1.147348,-1.147857 1.823606,-2.744991 0.676257,-1.597134 0.676257,-3.343145 z M 9.1808632,20.978906 21.052351,9.1180066 q -2.12299,-1.4315182 -4.717072,-1.4315182 -2.327276,0 -4.292649,1.1487383 -1.965373,1.1487383 -3.1136023,3.1308403 -1.1482288,1.982102 -1.1482288,4.310411 0,2.548543 1.3991838,4.703309 z M 28.411935,16.274717 q 0,2.470139 -0.958912,4.719165 -0.958912,2.249025 -2.571187,3.869944 -1.612276,1.620919 -3.852379,2.580256 -2.240103,0.959338 -4.693297,0.959338 -2.453194,0 -4.693297,-0.959338 Q 9.4027602,26.484745 7.7904849,24.863826 6.1782096,23.242907 5.2192976,20.993882 4.2603857,18.744856 4.2603857,16.274717 q 0,-2.47014 0.9589119,-4.711237 0.958912,-2.2410966 2.5711873,-3.8620157 1.6122753,-1.6209191 3.8523781,-2.5802565 2.240103,-0.9593374 4.693297,-0.9593374 2.453194,0 4.693297,0.9593374 2.240103,0.9593374 3.852379,2.5802565 1.612275,1.6209191 2.571187,3.8620157 0.958912,2.241097 0.958912,4.711237 z"
     id="path6"
     inkscape:connector-curvature="0"
     style="fill:#000000" />
  <rect
     style="fill:none;stroke:#000000;stroke-width:1.99999988;stroke-miterlimit:4;stroke-opacity:1;stroke-dasharray:none"
     id="rect3037"
     width="29.488052"
     height="29.269617"
     x="1.4197967"
     y="1.638229"
     ry="4.6416383"
     rx="4.1501708" />
</svg>
