<?xml version="1.0" encoding="UTF-8" standalone="no"?>
<!-- Generated by IcoMoon.io -->

<svg
   xmlns:dc="http://purl.org/dc/elements/1.1/"
   xmlns:cc="http://creativecommons.org/ns#"
   xmlns:rdf="http://www.w3.org/1999/02/22-rdf-syntax-ns#"
   xmlns:svg="http://www.w3.org/2000/svg"
   xmlns="http://www.w3.org/2000/svg"
   xmlns:sodipodi="http://sodipodi.sourceforge.net/DTD/sodipodi-0.dtd"
   xmlns:inkscape="http://www.inkscape.org/namespaces/inkscape"
   version="1.1"
   width="32"
   height="32"
   viewBox="0 0 32 32"
   id="svg2"
   inkscape:version="0.48.1 "
   sodipodi:docname="Erneuern.svg">
  <metadata
     id="metadata12">
    <rdf:RDF>
      <cc:Work
         rdf:about="">
        <dc:format>image/svg+xml</dc:format>
        <dc:type
           rdf:resource="http://purl.org/dc/dcmitype/StillImage" />
      </cc:Work>
    </rdf:RDF>
  </metadata>
  <defs
     id="defs10" />
  <sodipodi:namedview
     pagecolor="#ffffff"
     bordercolor="#666666"
     borderopacity="1"
     objecttolerance="10"
     gridtolerance="10"
     guidetolerance="10"
     inkscape:pageopacity="0"
     inkscape:pageshadow="2"
     inkscape:window-width="864"
     inkscape:window-height="731"
     id="namedview8"
     showgrid="false"
     inkscape:zoom="9.15625"
     inkscape:cx="16"
     inkscape:cy="16"
     inkscape:window-x="1969"
     inkscape:window-y="150"
     inkscape:window-maximized="0"
     inkscape:current-layer="svg2" />
  <g
     id="g4" />
  <path
     d="m 17.395417,4.4027303 c 5.862145,0 10.614334,5.0944694 10.614334,11.3788397 0,6.28437 -4.752189,11.378839 -10.614334,11.378839 v -2.438322 c 2.227494,0 4.322308,-0.929814 5.897021,-2.618759 1.57547,-1.688945 2.442813,-3.933828 2.442813,-6.321758 0,-2.387931 -0.867343,-4.633626 -2.442813,-6.3217582 -1.575471,-1.6889449 -3.669527,-2.6187587 -5.897021,-2.6187587 -2.227494,0 -4.322309,0.9298138 -5.897021,2.6187587 C 10.286845,10.758625 9.4945612,12.386612 9.1928108,14.156022 H 13.604583 L 8.2974159,20.658215 2.9902487,14.156022 H 6.8895002 C 7.6256802,8.6421609 12.048067,4.4027303 17.395417,4.4027303 z m 4.549,9.7532917 v 3.251096 H 15.879083 V 9.2793759 h 3.032667 v 4.8766461 z"
     id="path6"
     inkscape:connector-curvature="0"
     style="fill:#000000" />
  <rect
     style="fill:none;stroke:#000000;stroke-width:1.99999988;stroke-miterlimit:4;stroke-opacity:1;stroke-dasharray:none"
     id="rect3037"
     width="29.488052"
     height="29.269617"
     x="1.3105813"
     y="1.5290142"
     ry="4.6416383"
     rx="4.1501708" />
</svg>
