<?xml version="1.0" encoding="UTF-8" standalone="no"?>
<!-- Generated by IcoMoon.io -->

<svg
   xmlns:dc="http://purl.org/dc/elements/1.1/"
   xmlns:cc="http://creativecommons.org/ns#"
   xmlns:rdf="http://www.w3.org/1999/02/22-rdf-syntax-ns#"
   xmlns:svg="http://www.w3.org/2000/svg"
   xmlns="http://www.w3.org/2000/svg"
   xmlns:sodipodi="http://sodipodi.sourceforge.net/DTD/sodipodi-0.dtd"
   xmlns:inkscape="http://www.inkscape.org/namespaces/inkscape"
   version="1.1"
   width="32"
   height="32"
   viewBox="0 0 32 32"
   id="svg9263"
   inkscape:version="0.48.1 "
   sodipodi:docname="Bearbeiten.svg">
  <metadata
     id="metadata9273">
    <rdf:RDF>
      <cc:Work
         rdf:about="">
        <dc:format>image/svg+xml</dc:format>
        <dc:type
           rdf:resource="http://purl.org/dc/dcmitype/StillImage" />
      </cc:Work>
    </rdf:RDF>
  </metadata>
  <defs
     id="defs9271" />
  <sodipodi:namedview
     pagecolor="#ffffff"
     bordercolor="#666666"
     borderopacity="1"
     objecttolerance="10"
     gridtolerance="10"
     guidetolerance="10"
     inkscape:pageopacity="0"
     inkscape:pageshadow="2"
     inkscape:window-width="640"
     inkscape:window-height="840"
     id="namedview9269"
     showgrid="false"
     inkscape:zoom="9.15625"
     inkscape:cx="16"
     inkscape:cy="16"
     inkscape:window-x="1880"
     inkscape:window-y="77"
     inkscape:window-maximized="0"
     inkscape:current-layer="svg9263" />
  <g
     id="g9265" />
  <path
     d="m 26.66186,18.701481 c -1.358099,-2.352205 -0.541136,-5.366068 1.82401,-6.7363 L 25.941962,7.5592457 c -0.726368,0.4262765 -1.571641,0.6705563 -2.473535,0.6705563 -2.718625,0 -4.921997,-2.2179317 -4.921997,-4.9543515 h -5.087007 c 0.0065,0.8444641 -0.203836,1.7010614 -0.655996,2.4832423 -1.358099,2.3522048 -4.3768161,3.1521809 -6.7451983,1.7884198 l -2.543099,4.4059354 c 0.7320307,0.41657 1.3661877,1.025652 1.8167304,1.807024 1.3556723,2.34816 0.5435631,5.35717 -1.812686,6.72902 l 2.5439078,4.405935 c 0.723942,-0.422232 1.5651707,-0.663276 2.4622116,-0.663276 2.7097265,0 4.9074365,2.204181 4.9211875,4.927659 h 5.087007 c -0.0024,-0.836376 0.209498,-1.682458 0.655997,-2.457359 1.355672,-2.34816 4.367109,-3.149754 6.733873,-1.794891 l 2.543908,-4.405935 c -0.727177,-0.41657 -1.35729,-1.024034 -1.805406,-1.800553 z m -10.661764,2.757451 c -2.894151,0 -5.240693,-2.346543 -5.240693,-5.240693 0,-2.89415 2.346542,-5.240693 5.240693,-5.240693 2.89415,0 5.240692,2.346543 5.240692,5.240693 0,2.89415 -2.346542,5.240693 -5.240692,5.240693 z"
     id="path9267"
     inkscape:connector-curvature="0"
     style="fill:#000000" />
  <rect
     style="fill:none;stroke:#000000;stroke-width:1.99999988;stroke-miterlimit:4;stroke-opacity:1;stroke-dasharray:none"
     id="rect3037"
     width="29.488052"
     height="29.269617"
     x="1.3105814"
     y="1.5290139"
     ry="4.6416383"
     rx="4.1501708" />
</svg>
