<?xml version="1.0" encoding="UTF-8" standalone="no"?>
<!-- Generated by IcoMoon.io -->

<svg
   xmlns:dc="http://purl.org/dc/elements/1.1/"
   xmlns:cc="http://creativecommons.org/ns#"
   xmlns:rdf="http://www.w3.org/1999/02/22-rdf-syntax-ns#"
   xmlns:svg="http://www.w3.org/2000/svg"
   xmlns="http://www.w3.org/2000/svg"
   xmlns:sodipodi="http://sodipodi.sourceforge.net/DTD/sodipodi-0.dtd"
   xmlns:inkscape="http://www.inkscape.org/namespaces/inkscape"
   version="1.1"
   width="32"
   height="32"
   viewBox="0 0 32 32"
   id="svg9919"
   inkscape:version="0.48.1 "
   sodipodi:docname="Auflösen.svg">
  <metadata
     id="metadata9929">
    <rdf:RDF>
      <cc:Work
         rdf:about="">
        <dc:format>image/svg+xml</dc:format>
        <dc:type
           rdf:resource="http://purl.org/dc/dcmitype/StillImage" />
      </cc:Work>
    </rdf:RDF>
  </metadata>
  <defs
     id="defs9927" />
  <sodipodi:namedview
     pagecolor="#ffffff"
     bordercolor="#666666"
     borderopacity="1"
     objecttolerance="10"
     gridtolerance="10"
     guidetolerance="10"
     inkscape:pageopacity="0"
     inkscape:pageshadow="2"
     inkscape:window-width="640"
     inkscape:window-height="480"
     id="namedview9925"
     showgrid="false"
     inkscape:zoom="9.15625"
     inkscape:cx="16"
     inkscape:cy="16"
     inkscape:window-x="2188"
     inkscape:window-y="245"
     inkscape:window-maximized="0"
     inkscape:current-layer="svg9919" />
  <g
     id="g9921" />
  <path
     d="m 25.028552,16.055858 q 0,-2.669612 -1.442983,-4.891657 L 11.08343,23.649626 q 2.271259,1.475483 4.925085,1.475483 1.840407,0 3.507173,-0.721492 1.666766,-0.721491 2.876681,-1.931406 1.209914,-1.209914 1.923049,-2.893394 0.713134,-1.683481 0.713134,-3.523888 z M 8.4630322,21.014371 20.981885,8.5122319 Q 18.743126,7.003321 16.007586,7.003321 q -2.454185,0 -4.526732,1.210843 -2.0725471,1.2108429 -3.2833901,3.300104 -1.210843,2.089261 -1.210843,4.543447 0,2.686326 1.4754828,4.957585 z M 28.742795,16.055858 q 0,2.603684 -1.011203,4.974299 -1.011202,2.370615 -2.711397,4.079166 -1.700194,1.708552 -4.062452,2.719754 -2.362258,1.011203 -4.949228,1.011203 -2.58697,0 -4.949228,-1.011203 Q 8.6970295,26.817875 6.9968351,25.109323 5.2966407,23.400772 4.2854382,21.030157 3.2742358,18.659542 3.2742358,16.055858 q 0,-2.603684 1.0112024,-4.965942 1.0112025,-2.362258 2.7113969,-4.0708095 1.7001944,-1.7085514 4.0624519,-2.7197539 2.362258,-1.0112024 4.949228,-1.0112024 2.58697,0 4.949228,1.0112024 2.362258,1.0112025 4.062452,2.7197539 1.700195,1.7085515 2.711397,4.0708095 1.011203,2.362258 1.011203,4.965942 z"
     id="path9923"
     inkscape:connector-curvature="0"
     style="fill:#000000" />
  <rect
     style="fill:none;stroke:#000000;stroke-width:1.99999988;stroke-miterlimit:4;stroke-opacity:1;stroke-dasharray:none"
     id="rect3037"
     width="29.488052"
     height="29.269617"
     x="1.3105816"
     y="1.4197991"
     ry="4.6416383"
     rx="4.1501708" />
</svg>
