<?xml version="1.0" encoding="UTF-8" standalone="no"?>
<!-- Generated by IcoMoon.io -->

<svg
   xmlns:dc="http://purl.org/dc/elements/1.1/"
   xmlns:cc="http://creativecommons.org/ns#"
   xmlns:rdf="http://www.w3.org/1999/02/22-rdf-syntax-ns#"
   xmlns:svg="http://www.w3.org/2000/svg"
   xmlns="http://www.w3.org/2000/svg"
   xmlns:sodipodi="http://sodipodi.sourceforge.net/DTD/sodipodi-0.dtd"
   xmlns:inkscape="http://www.inkscape.org/namespaces/inkscape"
   version="1.1"
   width="32"
   height="32"
   viewBox="0 0 32 32"
   id="svg9876"
   inkscape:version="0.48.1 "
   sodipodi:docname="Löschen.svg">
  <metadata
     id="metadata9886">
    <rdf:RDF>
      <cc:Work
         rdf:about="">
        <dc:format>image/svg+xml</dc:format>
        <dc:type
           rdf:resource="http://purl.org/dc/dcmitype/StillImage" />
      </cc:Work>
    </rdf:RDF>
  </metadata>
  <defs
     id="defs9884" />
  <sodipodi:namedview
     pagecolor="#ffffff"
     bordercolor="#666666"
     borderopacity="1"
     objecttolerance="10"
     gridtolerance="10"
     guidetolerance="10"
     inkscape:pageopacity="0"
     inkscape:pageshadow="2"
     inkscape:window-width="640"
     inkscape:window-height="480"
     id="namedview9882"
     showgrid="false"
     inkscape:zoom="9.15625"
     inkscape:cx="16"
     inkscape:cy="16"
     inkscape:window-x="2081"
     inkscape:window-y="254"
     inkscape:window-maximized="0"
     inkscape:current-layer="svg9876" />
  <g
     id="g9878" />
  <path
     d="M 22.8157,7.9590444 H 9.4027304 c -1.2347384,0 -2.2354949,0.9488089 -2.2354949,2.1194536 v 0.706485 H 25.051195 v -0.706485 c 0,-1.1706447 -1.000757,-2.1194536 -2.235495,-2.1194536 z m -3.904665,-1.4129693 0.328618,2.2296655 h -6.260876 l 0.328618,-2.2296655 h 5.60364 z m 0.17884,-1.4129693 h -5.96132 c -0.614761,0 -1.187048,0.4719318 -1.272742,1.0498362 l -0.435921,2.9566382 c -0.08495,0.577198 0.347992,1.0498358 0.962753,1.0498358 h 7.45165 c 0.614761,0 1.048447,-0.4719313 0.962753,-1.0498358 L 20.361126,6.182942 C 20.276177,5.6057441 19.703146,5.1331058 19.088385,5.1331058 v 0 z m 4.098407,7.0648462 H 9.0301479 c -0.8196815,0 -1.4292264,0.63301 -1.3554551,1.407318 L 8.895273,26.333297 c 0.074516,0.773601 0.8055233,1.407317 1.625205,1.407317 h 11.177474 c 0.819682,0 1.550688,-0.63301 1.625205,-1.407317 l 1.22058,-12.728027 c 0.07452,-0.773601 -0.535773,-1.407318 -1.355455,-1.407318 z M 13.128555,24.914676 H 10.89306 l -0.745165,-9.890785 h 2.98066 v 9.890785 z m 4.47099,0 h -2.98066 v -9.890785 h 2.98066 v 9.890785 z m 3.725825,0 h -2.235495 v -9.890785 h 2.98066 l -0.745165,9.890785 z"
     id="path9880"
     inkscape:connector-curvature="0"
     style="fill:#ff0000" />
  <rect
     style="fill:none;stroke:#000000;stroke-width:1.99999988;stroke-miterlimit:4;stroke-opacity:1;stroke-dasharray:none"
     id="rect3037"
     width="29.488052"
     height="29.269617"
     x="1.2013665"
     y="1.6382288"
     ry="4.6416383"
     rx="4.1501708" />
</svg>
