<?xml version="1.0" encoding="UTF-8" standalone="no"?>
<!-- Generated by IcoMoon.io -->

<svg
   xmlns:dc="http://purl.org/dc/elements/1.1/"
   xmlns:cc="http://creativecommons.org/ns#"
   xmlns:rdf="http://www.w3.org/1999/02/22-rdf-syntax-ns#"
   xmlns:svg="http://www.w3.org/2000/svg"
   xmlns="http://www.w3.org/2000/svg"
   xmlns:sodipodi="http://sodipodi.sourceforge.net/DTD/sodipodi-0.dtd"
   xmlns:inkscape="http://www.inkscape.org/namespaces/inkscape"
   version="1.1"
   width="32"
   height="32"
   viewBox="0 0 32 32"
   id="svg9263"
   inkscape:version="0.48.1 "
   sodipodi:docname="kill.svg">
  <metadata
     id="metadata9273">
    <rdf:RDF>
      <cc:Work
         rdf:about="">
        <dc:format>image/svg+xml</dc:format>
        <dc:type
           rdf:resource="http://purl.org/dc/dcmitype/StillImage" />
        <dc:title></dc:title>
      </cc:Work>
    </rdf:RDF>
  </metadata>
  <defs
     id="defs9271" />
  <sodipodi:namedview
     pagecolor="#ffffff"
     bordercolor="#666666"
     borderopacity="1"
     objecttolerance="10"
     gridtolerance="10"
     guidetolerance="10"
     inkscape:pageopacity="0"
     inkscape:pageshadow="2"
     inkscape:window-width="640"
     inkscape:window-height="840"
     id="namedview9269"
     showgrid="false"
     inkscape:zoom="9.15625"
     inkscape:cx="16"
     inkscape:cy="16"
     inkscape:window-x="1880"
     inkscape:window-y="77"
     inkscape:window-maximized="0"
     inkscape:current-layer="svg9263" />
  <g
     id="g9265" />
  <rect
     style="fill:none;stroke:#000000;stroke-width:1.99999988;stroke-miterlimit:4;stroke-opacity:1;stroke-dasharray:none"
     id="rect3037"
     width="29.488052"
     height="29.269617"
     x="1.3105814"
     y="1.5290139"
     ry="4.6416383"
     rx="4.1501708" />
  <path
     style="fill:#ff0000"
     inkscape:connector-curvature="0"
     d="m 28.650266,24.10416 c 0,0 0,0 0,0 l -7.88573,-7.88573 7.88573,-7.8857303 c 0,0 0,0 0,0 0.08529,-0.08529 0.146213,-0.1843899 0.186015,-0.2899878 0.108035,-0.289176 0.0463,-0.6262771 -0.186015,-0.8585926 L 24.925096,3.4589486 C 24.69278,3.2266331 24.354867,3.1657112 24.066503,3.2729337 c -0.105598,0.03899 -0.204697,0.1007242 -0.289988,0.1852026 0,0 0,0 0,0 L 15.890785,11.343866 8.0050552,3.4581363 c 0,0 0,0 0,0 C 7.9197645,3.3736579 7.8206649,3.3119238 7.715067,3.2729337 7.425891,3.1648989 7.0887899,3.2266331 6.8564744,3.4589486 L 3.1313037,7.1841193 C 2.8989882,7.4164348 2.8380663,7.7543482 2.9452888,8.0427119 c 0.039802,0.1055979 0.1007242,0.2046975 0.1860149,0.2899878 0,0 0,0 0,0 L 11.017034,16.21843 3.1313037,24.10416 c 0,0 0,0 0,0 -0.084478,0.08529 -0.1462126,0.18439 -0.1860149,0.289988 -0.1080348,0.288364 -0.046301,0.626277 0.1860149,0.858593 l 3.7251707,3.72517 c 0.2323155,0.232316 0.5702289,0.293238 0.8585926,0.186015 0.1055979,-0.0398 0.2046975,-0.100724 0.2899882,-0.186015 0,0 0,0 0,0 l 7.8857298,-7.88573 7.88573,7.88573 c 0,0 0,0 0,0 0.08529,0.08529 0.18439,0.146213 0.289988,0.186015 0.289176,0.108035 0.626277,0.0463 0.858593,-0.186015 l 3.72517,-3.72517 c 0.232316,-0.232316 0.29405,-0.570229 0.186015,-0.858593 -0.0398,-0.105598 -0.100724,-0.204698 -0.186015,-0.289988 z"
     id="path19079" />
</svg>
