<?xml version="1.0" encoding="UTF-8" standalone="no"?>
<!-- Generated by IcoMoon.io -->

<svg
   xmlns:dc="http://purl.org/dc/elements/1.1/"
   xmlns:cc="http://creativecommons.org/ns#"
   xmlns:rdf="http://www.w3.org/1999/02/22-rdf-syntax-ns#"
   xmlns:svg="http://www.w3.org/2000/svg"
   xmlns="http://www.w3.org/2000/svg"
   xmlns:sodipodi="http://sodipodi.sourceforge.net/DTD/sodipodi-0.dtd"
   xmlns:inkscape="http://www.inkscape.org/namespaces/inkscape"
   version="1.1"
   width="32"
   height="32"
   viewBox="0 0 32 32"
   id="svg9305"
   inkscape:version="0.48.1 "
   sodipodi:docname="E-Mail senden.svg">
  <metadata
     id="metadata9315">
    <rdf:RDF>
      <cc:Work
         rdf:about="">
        <dc:format>image/svg+xml</dc:format>
        <dc:type
           rdf:resource="http://purl.org/dc/dcmitype/StillImage" />
      </cc:Work>
    </rdf:RDF>
  </metadata>
  <defs
     id="defs9313" />
  <sodipodi:namedview
     pagecolor="#ffffff"
     bordercolor="#666666"
     borderopacity="1"
     objecttolerance="10"
     gridtolerance="10"
     guidetolerance="10"
     inkscape:pageopacity="0"
     inkscape:pageshadow="2"
     inkscape:window-width="824"
     inkscape:window-height="871"
     id="namedview9311"
     showgrid="false"
     inkscape:zoom="9.15625"
     inkscape:cx="16"
     inkscape:cy="16"
     inkscape:window-x="2202"
     inkscape:window-y="130"
     inkscape:window-maximized="0"
     inkscape:current-layer="svg9305" />
  <g
     id="g9307" />
  <path
     d="m 26.234792,22.895722 v -9.663223 q -0.430686,0.453073 -0.929256,0.830752 -3.609919,2.592315 -5.737703,4.253115 -0.687137,0.541152 -1.117823,0.842731 -0.430686,0.30158 -1.165341,0.610205 -0.734655,0.308626 -1.380307,0.308626 h -0.02716 q -0.646407,0 -1.380308,-0.308626 Q 13.763,19.460677 13.33156,19.159097 12.900119,18.857518 12.213737,18.316366 10.085953,16.655566 6.4760342,14.063251 5.9774641,13.685572 5.5467782,13.232499 v 9.663223 q 0,0.163473 0.1282252,0.283259 0.1282253,0.119787 0.303215,0.119787 H 25.80486 q 0.17499,0 0.303215,-0.119787 0.128226,-0.119786 0.128226,-0.283259 z m 0,-13.2243965 V 9.3626998 q 0,0 -0.0068,-0.1634729 -0.0068,-0.1634729 -0.04073,-0.1571313 -0.03394,0.00634 -0.07391,-0.1134446 -0.03997,-0.1197862 -0.121437,-0.09442 -0.08146,0.025366 -0.188567,-0.031708 H 5.9767099 q -0.1749898,0 -0.303215,0.1197862 -0.1282253,0.1197862 -0.1282253,0.2832591 0,2.1138743 1.9799488,3.5731523 2.5992016,1.912351 5.4013006,3.98888 0.08071,0.06271 0.471416,0.371337 0.390711,0.308626 0.619253,0.472099 0.228542,0.163473 0.599641,0.396704 0.3711,0.23323 0.680348,0.34597 0.30925,0.11274 0.579277,0.113445 h 0.02716 q 0.269272,0 0.579275,-0.113445 0.310005,-0.113444 0.680349,-0.34597 0.370344,-0.232527 0.599642,-0.396704 0.229297,-0.164177 0.619253,-0.472099 0.389955,-0.307921 0.471416,-0.371337 2.801345,-2.075825 5.4013,-3.98888 0.727113,-0.541152 1.353907,-1.453641 0.626796,-0.912489 0.626042,-1.654459 z M 27.959044,9.2062732 V 22.896427 q 0,0.830752 -0.632829,1.421932 -0.632829,0.59118 -1.522109,0.59118 H 5.9774641 q -0.8892798,0 -1.5221092,-0.59118 -0.6328293,-0.59118 -0.6328293,-1.421932 V 9.2062732 q 0,-0.8307526 0.6328293,-1.4219327 Q 5.0881843,7.1931604 5.9774641,7.1931604 H 25.804106 q 0.88928,0 1.522109,0.5911801 0.632829,0.5911801 0.632829,1.4219327 z"
     id="path9309"
     inkscape:connector-curvature="0"
     style="fill:#000000" />
  <rect
     style="fill:none;stroke:#000000;stroke-width:1.99999988;stroke-miterlimit:4;stroke-opacity:1;stroke-dasharray:none"
     id="rect3037"
     width="29.488052"
     height="29.269617"
     x="1.3105811"
     y="1.4197983"
     ry="4.6416383"
     rx="4.1501708" />
</svg>
