<?xml version="1.0" encoding="UTF-8" standalone="no"?>
<!-- Generated by IcoMoon.io -->

<svg
   xmlns:dc="http://purl.org/dc/elements/1.1/"
   xmlns:cc="http://creativecommons.org/ns#"
   xmlns:rdf="http://www.w3.org/1999/02/22-rdf-syntax-ns#"
   xmlns:svg="http://www.w3.org/2000/svg"
   xmlns="http://www.w3.org/2000/svg"
   xmlns:sodipodi="http://sodipodi.sourceforge.net/DTD/sodipodi-0.dtd"
   xmlns:inkscape="http://www.inkscape.org/namespaces/inkscape"
   version="1.1"
   width="32"
   height="32"
   viewBox="0 0 32 32"
   id="svg14960"
   inkscape:version="0.48.1 "
   sodipodi:docname="Rückgabe.svg">
  <metadata
     id="metadata14970">
    <rdf:RDF>
      <cc:Work
         rdf:about="">
        <dc:format>image/svg+xml</dc:format>
        <dc:type
           rdf:resource="http://purl.org/dc/dcmitype/StillImage" />
        <dc:title></dc:title>
      </cc:Work>
    </rdf:RDF>
  </metadata>
  <defs
     id="defs14968" />
  <sodipodi:namedview
     pagecolor="#ffffff"
     bordercolor="#666666"
     borderopacity="1"
     objecttolerance="10"
     gridtolerance="10"
     guidetolerance="10"
     inkscape:pageopacity="0"
     inkscape:pageshadow="2"
     inkscape:window-width="885"
     inkscape:window-height="764"
     id="namedview14966"
     showgrid="false"
     inkscape:zoom="9.15625"
     inkscape:cx="15"
     inkscape:cy="16"
     inkscape:window-x="2006"
     inkscape:window-y="86"
     inkscape:window-maximized="0"
     inkscape:current-layer="svg14960" />
  <g
     id="g14962"
     transform="matrix(-1,0,0,1,29.714,0)" />
  <path
     d="m 3.287806,13.500246 6.857,6.857 c 0.214,0.226 0.482,0.339 0.804,0.339 0.142667,0 0.291333,-0.02967 0.446,-0.089 0.464,-0.202667 0.696,-0.554 0.696,-1.054 l 0,-3.429 2.857,0 c 3.845333,0 6.452333,0.779667 7.821,2.339 1.416666,1.630667 1.856999,4.446 1.320999,8.446 0.308777,0.914542 0.435363,0.472498 1.035,0.411 0.119334,-0.166667 0.244334,-0.351333 0.375,-0.554 0.130667,-0.202667 0.365667,-0.610333 0.705,-1.223 0.339334,-0.612667 0.634,-1.205 0.884,-1.777 0.25,-0.572 0.479334,-1.250667 0.688,-2.036 0.208667,-0.785333 0.313,-1.511667 0.313,-2.179 0,-0.583333 -0.021,-1.125 -0.063,-1.625 -0.042,-0.5 -0.125333,-1.035667 -0.25,-1.607 -0.124666,-0.571333 -0.291333,-1.095 -0.5,-1.571 -0.208666,-0.476 -0.488333,-0.961 -0.839,-1.455 -0.350666,-0.494 -0.758333,-0.934333 -1.223,-1.321 -0.464666,-0.386667 -1.027,-0.752667 -1.686999,-1.098 -0.66,-0.345333 -1.401,-0.634 -2.223,-0.866 -0.822,-0.2320004 -1.771334,-0.4136674 -2.848,-0.5450004 -1.076667,-0.131333 -2.246334,-0.196667 -3.509,-0.196 l -2.857,0 0,-3.429 c 0,-0.5 -0.232,-0.851333 -0.696,-1.054 -0.154667,-0.05933 -0.303333,-0.089 -0.446,-0.089 -0.309333,0 -0.577333,0.113 -0.804,0.339 l -6.857,6.8570004 c -0.226,0.226 -0.339,0.494 -0.339,0.804 0,0.31 0.113,0.578 0.339,0.804 z"
     id="path14964"
     inkscape:connector-curvature="0"
     style="fill:#000000"
     sodipodi:nodetypes="ccscscscccsssssssssssssccscscsscc" />
  <rect
     style="fill:none;stroke:#000000;stroke-width:1.99999988;stroke-miterlimit:4;stroke-opacity:1;stroke-dasharray:none"
     id="rect3037"
     width="29.488052"
     height="29.269617"
     x="1.3105803"
     y="1.6382289"
     ry="4.6416383"
     rx="4.1501708" />
</svg>
