<?xml version="1.0" encoding="UTF-8" standalone="no"?>
<!-- Generated by IcoMoon.io -->

<svg
   xmlns:dc="http://purl.org/dc/elements/1.1/"
   xmlns:cc="http://creativecommons.org/ns#"
   xmlns:rdf="http://www.w3.org/1999/02/22-rdf-syntax-ns#"
   xmlns:svg="http://www.w3.org/2000/svg"
   xmlns="http://www.w3.org/2000/svg"
   xmlns:sodipodi="http://sodipodi.sourceforge.net/DTD/sodipodi-0.dtd"
   xmlns:inkscape="http://www.inkscape.org/namespaces/inkscape"
   version="1.1"
   width="32"
   height="32"
   viewBox="0 0 32 31.999999"
   id="svg3275"
   inkscape:version="0.48.1 "
   sodipodi:docname="bell.svg">
  <metadata
     id="metadata3285">
    <rdf:RDF>
      <cc:Work
         rdf:about="">
        <dc:format>image/svg+xml</dc:format>
        <dc:type
           rdf:resource="http://purl.org/dc/dcmitype/StillImage" />
      </cc:Work>
    </rdf:RDF>
  </metadata>
  <defs
     id="defs3283" />
  <sodipodi:namedview
     pagecolor="#ffffff"
     bordercolor="#666666"
     borderopacity="1"
     objecttolerance="10"
     gridtolerance="10"
     guidetolerance="10"
     inkscape:pageopacity="0"
     inkscape:pageshadow="2"
     inkscape:window-width="745"
     inkscape:window-height="618"
     id="namedview3281"
     showgrid="false"
     width="524.41px"
     inkscape:zoom="9.15625"
     inkscape:cx="31.411093"
     inkscape:cy="12.68536"
     inkscape:window-x="2018"
     inkscape:window-y="171"
     inkscape:window-maximized="0"
     inkscape:current-layer="svg3275" />
  <g
     id="g3277"
     transform="translate(0,2.4757813e-4)" />
  <path
     d="m 16.611491,27.263248 q 0,-0.2255 -0.225481,-0.2255 -0.830969,0 -1.429362,-0.5984 -0.598392,-0.5984 -0.598392,-1.4294 0,-0.2254 -0.225481,-0.2254 -0.225482,0 -0.225482,0.2254 0,1.0281 0.725325,1.7527 0.725324,0.7245 1.752604,0.7253 0.225481,0 0.225481,-0.2255 z m -9.3622009,-4.0547 H 25.523519 q -2.309212,-2.5481 -3.470519,-5.7932 -1.161307,-3.245 -1.161307,-6.8212 0,-3.6037004 -4.504895,-3.6037004 -4.504894,0 -4.504894,3.6037004 0,3.5762 -1.161307,6.8212 -1.1613069,3.2451 -3.4705185,5.7932 z m 20.8499179,0 q 0,0.7324 -0.535321,1.2669 -0.535321,0.5345 -1.266952,0.5353 h -6.307167 q 0,1.4925 -1.055662,2.5481 -1.055663,1.0557 -2.548096,1.0557 -1.492433,0 -2.548096,-1.0557 -1.055662,-1.0556 -1.055662,-2.5481 H 6.4750853 q -0.7324198,0 -1.2669522,-0.5353 -0.5345325,-0.5353 -0.5353209,-1.2669 2.6750274,-2.2667 4.0405291,-5.5961 1.3655017,-3.3294 1.3655017,-7.0183 0,-2.3226004 1.351311,-3.6889004 1.35131,-1.3663 3.716498,-1.6469 -0.112741,-0.2531 -0.112741,-0.5212 0,-0.5629 0.394198,-0.9571 0.394198,-0.3942 0.957113,-0.3942 0.562914,0 0.957112,0.3942 0.394198,0.3942 0.394198,0.9571 0,0.2673 -0.11274,0.5212 2.365187,0.2814 3.716498,1.6469 1.35131,1.3655 1.35131,3.6889004 0,3.6889 1.365502,7.0183 1.365502,3.3294 4.040529,5.5961 z"
     id="path3279"
     inkscape:connector-curvature="0"
     style="fill:#000000" />
  <rect
     style="fill:none;stroke:#000000;stroke-width:1.99999988;stroke-miterlimit:4;stroke-opacity:1;stroke-dasharray:none"
     id="rect3037"
     width="29.488052"
     height="29.269617"
     x="1.4197973"
     y="1.4199219"
     ry="4.6416383"
     rx="4.1501708" />
</svg>
