<?xml version="1.0" encoding="UTF-8" standalone="no"?>
<!-- Generated by IcoMoon.io -->

<svg
   xmlns:dc="http://purl.org/dc/elements/1.1/"
   xmlns:cc="http://creativecommons.org/ns#"
   xmlns:rdf="http://www.w3.org/1999/02/22-rdf-syntax-ns#"
   xmlns:svg="http://www.w3.org/2000/svg"
   xmlns="http://www.w3.org/2000/svg"
   xmlns:sodipodi="http://sodipodi.sourceforge.net/DTD/sodipodi-0.dtd"
   xmlns:inkscape="http://www.inkscape.org/namespaces/inkscape"
   version="1.1"
   width="32"
   height="32"
   viewBox="0 0 32 32"
   id="svg2"
   inkscape:version="0.48.1 "
   sodipodi:docname="bkb.svg">
  <metadata
     id="metadata12">
    <rdf:RDF>
      <cc:Work
         rdf:about="">
        <dc:format>image/svg+xml</dc:format>
        <dc:type
           rdf:resource="http://purl.org/dc/dcmitype/StillImage" />
        <dc:title></dc:title>
      </cc:Work>
    </rdf:RDF>
  </metadata>
  <defs
     id="defs10" />
  <sodipodi:namedview
     pagecolor="#ffffff"
     bordercolor="#666666"
     borderopacity="1"
     objecttolerance="10"
     gridtolerance="10"
     guidetolerance="10"
     inkscape:pageopacity="0"
     inkscape:pageshadow="2"
     inkscape:window-width="1680"
     inkscape:window-height="1028"
     id="namedview8"
     showgrid="true"
     inkscape:zoom="22.627417"
     inkscape:cx="14.704685"
     inkscape:cy="15.204943"
     inkscape:window-x="1672"
     inkscape:window-y="-8"
     inkscape:window-maximized="1"
     inkscape:current-layer="svg2"
     showguides="true"
     inkscape:guide-bbox="true">
    <inkscape:grid
       type="xygrid"
       id="grid5894"
       empspacing="5"
       visible="true"
       enabled="true"
       snapvisiblegridlinesonly="true"
       spacingx="0.5px"
       spacingy="0.5px" />
    <sodipodi:guide
       orientation="1,0"
       position="16,8.5"
       id="guide6676" />
  </sodipodi:namedview>
  <rect
     style="fill:#000000;stroke:none"
     id="rect5896"
     width="34.5"
     height="32.5"
     x="32.5"
     y="0.5"
     rx="4.1501708"
     ry="4.6416383" />
  <g
     id="g3017"
     transform="matrix(1.0683652,0,0,1.2229713,47.360146,-8.8653704)">
    <g
       id="g3007" />
    <path
       id="path3009"
       d="M 29.894,18.237 24.857,6.25 C 24.46,5.45 23.404,4.796 22.51,4.796 H 9.491 C 8.597,4.796 7.541,5.45 7.142,6.25 L 2.107,18.237 c -0.4,0.8 -0.606,2.176 -0.459,3.059 l 1.088,5.898 c 0.147,0.882 0.997,1.603 1.89,1.603 h 22.752 c 0.894,0 1.744,-0.722 1.891,-1.603 l 1.088,-5.898 c 0.142,-0.882 -0.062,-2.259 -0.462,-3.059 z m -2.182,4.201 -0.413,2.403 c -0.125,0.923 -0.957,1.678 -1.846,1.678 H 6.547 c -0.891,0 -1.722,-0.755 -1.846,-1.678 L 4.287,22.438 C 4.164,21.515 4.791,20.76 5.684,20.76 h 20.634 c 0.893,0.002 1.52,0.755 1.395,1.678 z"
       inkscape:connector-curvature="0"
       style="fill:#000000" />
  </g>
  <g
     id="g4" />
  <g
     style="font-size:16px;font-style:normal;font-weight:normal;line-height:125%;letter-spacing:0px;word-spacing:0px;fill:#000000;fill-opacity:1;stroke:none;font-family:HAW Frutiger Next Regular;-inkscape-font-specification:HAW Frutiger Next Regular"
     id="text2989" />
  <g
     style="font-size:16px;font-style:normal;font-weight:normal;line-height:125%;letter-spacing:0px;word-spacing:0px;fill:#ffffff;fill-opacity:1;stroke:none;font-family:HAW Frutiger Next Regular;-inkscape-font-specification:HAW Frutiger Next Regular"
     id="text2993"
     transform="matrix(0.6800609,0,0,0.75866663,66.223852,4.7211101)">
    <g
       id="g5891">
      <path
         sodipodi:nodetypes="cccccccccccccccccccccccsssccsssscccccccc"
         inkscape:connector-curvature="0"
         d="m 19.521998,18.821033 1e-6,-9.8857647 -2.205686,1.5704617 0,-2.8885637 2.205685,-1.318102 2.940914,0 0,12.5219697 c -0.76512,0.01484 -1.186952,0.05334 -2.940914,-1e-6 z m -6.617054,-4.613357 0,3.954306 -2.9409145,0 0,-3.954306 -4.4113692,0 0,-2.636204 4.4113692,0 0,-3.9543057 2.9409145,0 0,3.9543057 4.411369,10e-7 0,2.636203 z m 15.422701,-10.3168911 0,26.0000001 -21.0000001,0 c -1.657,0 -3,-1.343 -3,-3 0,-1.657 1.343,-3 3,-3 l 19.0000001,0 0,-24.00000001 -20.0000001,0 c -2.2,0 -4,1.79999991 -4,3.99999991 l 0,24.0000001 c 0,2.2 1.8,4 4,4 l 24.0000001,0 0,-28.0000001 z M 8.3276449,25.890785 l 18.0000001,0 0,2 -18.0000001,0 z"
         style="fill:#ffffff"
         id="path3013" />
    </g>
  </g>
  <rect
     style="fill:#ffffff;stroke:#000000;stroke-width:1.99999988;stroke-miterlimit:4;stroke-opacity:1;stroke-dasharray:none"
     id="rect3037"
     width="29.488052"
     height="29.269617"
     x="1.2127379"
     y="1.2458835"
     ry="4.6416383"
     rx="4.1501708" />
  <text
     xml:space="preserve"
     style="font-size:16px;font-style:normal;font-weight:normal;line-height:125%;letter-spacing:0px;word-spacing:0px;fill:#000000;fill-opacity:1;stroke:none;font-family:HAW Frutiger Next Regular;-inkscape-font-specification:HAW Frutiger Next Regular"
     x="3.5"
     y="16"
     id="text6666"
     sodipodi:linespacing="125%"><tspan
       sodipodi:role="line"
       id="tspan6668"
       x="3.5"
       y="16"
       style="font-weight:bold;-inkscape-font-specification:'HAW Frutiger Next Regular, Bold'">BIB</tspan><tspan
       sodipodi:role="line"
       x="3.5"
       y="36"
       id="tspan6670" /></text>
  <text
     xml:space="preserve"
     style="font-size:16px;font-style:normal;font-weight:normal;line-height:125%;letter-spacing:0px;word-spacing:0px;fill:#1a1a1a;fill-opacity:1;stroke:none;font-family:HAW Frutiger Next Regular;-inkscape-font-specification:HAW Frutiger Next Regular"
     x="8.5"
     y="27.5"
     id="text6672"
     sodipodi:linespacing="125%"><tspan
       sodipodi:role="line"
       id="tspan6674"
       x="8.5"
       y="27.5"
       style="font-weight:bold;-inkscape-font-specification:'HAW Frutiger Next Regular, Bold';fill:#1a1a1a">LS</tspan></text>
</svg>
