<?xml version="1.0" encoding="UTF-8" standalone="no"?>
<!-- Generated by IcoMoon.io -->

<svg
   xmlns:dc="http://purl.org/dc/elements/1.1/"
   xmlns:cc="http://creativecommons.org/ns#"
   xmlns:rdf="http://www.w3.org/1999/02/22-rdf-syntax-ns#"
   xmlns:svg="http://www.w3.org/2000/svg"
   xmlns="http://www.w3.org/2000/svg"
   xmlns:sodipodi="http://sodipodi.sourceforge.net/DTD/sodipodi-0.dtd"
   xmlns:inkscape="http://www.inkscape.org/namespaces/inkscape"
   version="1.1"
   width="32"
   height="32"
   viewBox="0 0 32 32"
   id="svg2"
   inkscape:version="0.48.1 "
   sodipodi:docname="book4.svg">
  <metadata
     id="metadata12">
    <rdf:RDF>
      <cc:Work
         rdf:about="">
        <dc:format>image/svg+xml</dc:format>
        <dc:type
           rdf:resource="http://purl.org/dc/dcmitype/StillImage" />
      </cc:Work>
    </rdf:RDF>
  </metadata>
  <defs
     id="defs10" />
  <sodipodi:namedview
     pagecolor="#ffffff"
     bordercolor="#666666"
     borderopacity="1"
     objecttolerance="10"
     gridtolerance="10"
     guidetolerance="10"
     inkscape:pageopacity="0"
     inkscape:pageshadow="2"
     inkscape:window-width="640"
     inkscape:window-height="480"
     id="namedview8"
     showgrid="false"
     inkscape:zoom="9.15625"
     inkscape:cx="16"
     inkscape:cy="16"
     inkscape:window-x="0"
     inkscape:window-y="0"
     inkscape:window-maximized="0"
     inkscape:current-layer="svg2" />
  <g
     id="g4" />
  <path
     d="M12.48 19.634l-6.4-2.562v2.166l6.4 2.562v-2.166zM12.48 12.986l-6.4-2.56v2.166l6.4 2.56v-2.166zM29.698 1.875c-0.438-0.298-0.998-0.358-1.491-0.162l-12.206 4.883-12.206-4.883c-0.493-0.197-1.051-0.136-1.491 0.162-0.438 0.298-0.702 0.794-0.702 1.325v20.48c0 0.654 0.398 1.242 1.005 1.486l12.773 5.109c0 0 0.262 0.085 0.31 0.094 0.104 0.019 0.208 0.030 0.312 0.030 0.102 0 0.208-0.011 0.31-0.032 0.048-0.010 0.31-0.096 0.31-0.096l12.771-5.107c0.61-0.243 1.008-0.83 1.008-1.485v-20.48c0-0.531-0.264-1.027-0.702-1.325zM14.4 27.126l-10.24-4.096v-17.933l10.24 4.098v17.931zM27.84 23.032l-10.24 4.096v-17.933l10.24-4.098v17.934zM25.92 17.072l-6.402 2.562v2.166l6.402-2.562v-2.166zM25.92 10.426l-6.402 2.56v2.166l6.402-2.56v-2.166z"
     fill="#000000"
     id="path6"
     style="fill:#cccccc" />
</svg>
