<?xml version="1.0" encoding="UTF-8" standalone="no"?>
<!-- Generated by IcoMoon.io -->

<svg
   xmlns:dc="http://purl.org/dc/elements/1.1/"
   xmlns:cc="http://creativecommons.org/ns#"
   xmlns:rdf="http://www.w3.org/1999/02/22-rdf-syntax-ns#"
   xmlns:svg="http://www.w3.org/2000/svg"
   xmlns="http://www.w3.org/2000/svg"
   xmlns:sodipodi="http://sodipodi.sourceforge.net/DTD/sodipodi-0.dtd"
   xmlns:inkscape="http://www.inkscape.org/namespaces/inkscape"
   version="1.1"
   width="32"
   height="32"
   viewBox="0 0 32 32"
   id="svg3114"
   inkscape:version="0.48.1 "
   sodipodi:docname="bookmark-o.svg">
  <metadata
     id="metadata3124">
    <rdf:RDF>
      <cc:Work
         rdf:about="">
        <dc:format>image/svg+xml</dc:format>
        <dc:type
           rdf:resource="http://purl.org/dc/dcmitype/StillImage" />
      </cc:Work>
    </rdf:RDF>
  </metadata>
  <defs
     id="defs3122" />
  <sodipodi:namedview
     pagecolor="#ffffff"
     bordercolor="#666666"
     borderopacity="1"
     objecttolerance="10"
     gridtolerance="10"
     guidetolerance="10"
     inkscape:pageopacity="0"
     inkscape:pageshadow="2"
     inkscape:window-width="1680"
     inkscape:window-height="1028"
     id="namedview3120"
     showgrid="true"
     inkscape:zoom="12.948893"
     inkscape:cx="-5.5883033"
     inkscape:cy="5.9476401"
     inkscape:window-x="1672"
     inkscape:window-y="-8"
     inkscape:window-maximized="1"
     inkscape:current-layer="svg3114"
     showguides="true"
     inkscape:guide-bbox="true">
    <inkscape:grid
       type="xygrid"
       id="grid3005"
       empspacing="5"
       visible="true"
       enabled="true"
       snapvisiblegridlinesonly="true"
       spacingx="2px"
       spacingy="2px" />
    <sodipodi:guide
       orientation="0,1"
       position="12,19.098976"
       id="guide3007" />
    <sodipodi:guide
       orientation="1,0"
       position="8.996587,21.460751"
       id="guide3009" />
    <sodipodi:guide
       orientation="0,1"
       position="10.812287,21.037543"
       id="guide3011" />
    <sodipodi:guide
       orientation="1,0"
       position="14,19.098976"
       id="guide3013" />
  </sodipodi:namedview>
  <rect
     style="fill:#1a1a1a;fill-opacity:1;fill-rule:nonzero;stroke:#ffffff;stroke-width:2;stroke-miterlimit:4;stroke-opacity:1;stroke-dasharray:none"
     id="rect15313"
     width="40"
     height="37.207474"
     x="-42"
     y="-2"
     rx="4.1501708"
     ry="4.6416383" />
  <g
     id="g3116" />
  <rect
     style="fill:none;stroke:#ffffff;stroke-width:1.99999988000000010;stroke-miterlimit:4;stroke-opacity:1;stroke-dasharray:none"
     id="rect3037"
     width="29.488052"
     height="29.269617"
     x="1.4197968"
     y="1.4197991"
     ry="4.6416383"
     rx="4.1501708" />
  <g
     transform="matrix(1.1060397,0,0,1.098932,-1.38332,-0.00420148)"
     style="font-size:13.08987235999999900px;font-style:normal;font-weight:normal;line-height:125%;letter-spacing:0px;word-spacing:0px;fill:#ffffff;fill-opacity:1;stroke:none;font-family:HAW Frutiger Next Regular;-inkscape-font-specification:HAW Frutiger Next Regular"
     id="text2991">
    <path
       d="m 13.90847,12.743465 0,2.819989 -1.808253,0 0,-2.7888 -2.7154661,-0.03119 0,-1.764046 2.7154661,0 0,-2.6957605 1.808253,0 0,2.6957605 2.642589,0 0.0055,1.763471 z"
       style="font-weight:bold;-inkscape-font-specification:'HAW Frutiger Next Regular, Bold';fill:#ffffff"
       id="path3000"
       inkscape:connector-curvature="0"
       sodipodi:nodetypes="ccccccccccccc" />
  </g>
  <g
     transform="matrix(0.73403868,0,0,0.9422498,5.7837143,0.58982793)"
     style="font-size:15.07599735000000000px;font-style:normal;font-weight:normal;line-height:125%;letter-spacing:0px;word-spacing:0px;fill:#ffffff;fill-opacity:1;stroke:none;font-family:HAW Frutiger Next Regular;-inkscape-font-specification:HAW Frutiger Next Regular"
     id="text2995">
    <path
       d="m 18.587335,18.50189 0,-7.884901 -1.944771,1.492509 -0.753616,-1.492509 2.985018,-2.1706713 1.854135,0 0,10.0555723 z"
       style="font-weight:bold;-inkscape-font-specification:'HAW Frutiger Next Regular, Bold';fill:#ffffff"
       id="path3003"
       inkscape:connector-curvature="0" />
  </g>
  <path
     d="M 25.474918,6.5553673 H 6.5250808 V 25.482403 L 16,18 l 1.646685,1.295424 7.828233,6.186979 V 6.5553673 z m 0.222804,-1.9499652 q 0.425921,0 0.814535,0.1373937 0.610383,0.1979833 0.972053,0.6246716 0.361668,0.4266882 0.360632,0.9446876 v 19.64302 q 0,0.517999 -0.360632,0.944687 -0.360634,0.426689 -0.972053,0.624671 -0.351306,0.122033 -0.814535,0.122033 -0.888111,0 -1.5358,-0.487278 l -8.160886,-6.460913 -8.1608867,6.460913 q -0.6663427,0.502639 -1.535801,0.502639 -0.4259206,0 -0.8145342,-0.137394 Q 4.8794316,27.326551 4.5177619,26.899862 4.1560922,26.473174 4.1571284,25.955175 V 6.312155 q 0,-0.5179994 0.3606335,-0.9446876 Q 4.8783953,4.9407791 5.4898141,4.7427958 5.8784277,4.6054021 6.3043483,4.6054021 H 25.697722 z"
     id="path3118"
     inkscape:connector-curvature="0"
     style="fill:#ffffff;fill-opacity:1" />
</svg>
