<?xml version="1.0" encoding="UTF-8" standalone="no"?>
<!-- Generated by IcoMoon.io -->

<svg
   xmlns:dc="http://purl.org/dc/elements/1.1/"
   xmlns:cc="http://creativecommons.org/ns#"
   xmlns:rdf="http://www.w3.org/1999/02/22-rdf-syntax-ns#"
   xmlns:svg="http://www.w3.org/2000/svg"
   xmlns="http://www.w3.org/2000/svg"
   xmlns:sodipodi="http://sodipodi.sourceforge.net/DTD/sodipodi-0.dtd"
   xmlns:inkscape="http://www.inkscape.org/namespaces/inkscape"
   version="1.1"
   width="32"
   height="32"
   viewBox="0 0 32 32"
   id="svg3071"
   inkscape:version="0.48.1 "
   sodipodi:docname="cart.svg">
  <metadata
     id="metadata3081">
    <rdf:RDF>
      <cc:Work
         rdf:about="">
        <dc:format>image/svg+xml</dc:format>
        <dc:type
           rdf:resource="http://purl.org/dc/dcmitype/StillImage" />
      </cc:Work>
    </rdf:RDF>
  </metadata>
  <defs
     id="defs3079" />
  <sodipodi:namedview
     pagecolor="#ffffff"
     bordercolor="#666666"
     borderopacity="1"
     objecttolerance="10"
     gridtolerance="10"
     guidetolerance="10"
     inkscape:pageopacity="0"
     inkscape:pageshadow="2"
     inkscape:window-width="929"
     inkscape:window-height="675"
     id="namedview3077"
     showgrid="false"
     inkscape:zoom="9.15625"
     inkscape:cx="16"
     inkscape:cy="16"
     inkscape:window-x="1782"
     inkscape:window-y="233"
     inkscape:window-maximized="0"
     inkscape:current-layer="svg3071" />
  <g
     id="g3073" />
  <path
     d="m 23.649367,18.21843 c 0.814683,0 1.664175,-0.581587 1.887842,-1.292939 l 2.14854,-6.827092 C 27.909417,9.3870477 27.425792,8.8054607 26.611109,8.8054607 H 11.446162 c 0,-1.4852321 -1.326452,-2.6894198 -2.9624828,-2.6894198 H 4.0399556 V 8.8054607 H 8.4836792 V 20.235495 c 0,1.114092 0.9946535,2.017065 2.2218618,2.017065 h 14.071791 c 0.818386,0 1.481242,-0.601758 1.481242,-1.34471 0,-0.742953 -0.662856,-1.34471 -1.481242,-1.34471 H 11.446162 V 18.21843 H 23.648627 z M 11.446902,11.49488 h 13.396346 l -1.269424,4.03413 H 11.447643 v -4.03413 z m 1.481241,14.455632 c 0,0.924488 -0.833198,1.680887 -1.851551,1.680887 h -0.740621 c -1.018353,0 -1.8515511,-0.756399 -1.8515511,-1.680887 v -0.672355 c 0,-0.924488 0.8331981,-1.680888 1.8515511,-1.680888 h 0.740621 c 1.018353,0 1.851551,0.7564 1.851551,1.680888 v 0.672355 z m 13.331171,0 c 0,0.924488 -0.833198,1.680887 -1.851551,1.680887 h -0.740621 c -1.018353,0 -1.851551,-0.756399 -1.851551,-1.680887 v -0.672355 c 0,-0.924488 0.833198,-1.680888 1.851551,-1.680888 h 0.740621 c 1.018353,0 1.851551,0.7564 1.851551,1.680888 v 0.672355 z"
     id="path3075"
     inkscape:connector-curvature="0"
     style="fill:#000000" />
  <rect
     style="fill:none;stroke:#000000;stroke-width:1.99999988;stroke-miterlimit:4;stroke-opacity:1;stroke-dasharray:none"
     id="rect3037"
     width="29.488052"
     height="29.269617"
     x="1.3105813"
     y="1.5290141"
     ry="4.6416383"
     rx="4.1501708" />
</svg>
