<?xml version="1.0" encoding="UTF-8" standalone="no"?>
<!-- Generated by IcoMoon.io -->

<svg
   xmlns:dc="http://purl.org/dc/elements/1.1/"
   xmlns:cc="http://creativecommons.org/ns#"
   xmlns:rdf="http://www.w3.org/1999/02/22-rdf-syntax-ns#"
   xmlns:svg="http://www.w3.org/2000/svg"
   xmlns="http://www.w3.org/2000/svg"
   xmlns:sodipodi="http://sodipodi.sourceforge.net/DTD/sodipodi-0.dtd"
   xmlns:inkscape="http://www.inkscape.org/namespaces/inkscape"
   version="1.1"
   width="35"
   height="32"
   viewBox="0 0 35 32"
   id="svg2"
   inkscape:version="0.48.1 "
   sodipodi:docname="chevron-left-w.svg">
  <metadata
     id="metadata12">
    <rdf:RDF>
      <cc:Work
         rdf:about="">
        <dc:format>image/svg+xml</dc:format>
        <dc:type
           rdf:resource="http://purl.org/dc/dcmitype/StillImage" />
        <dc:title></dc:title>
      </cc:Work>
    </rdf:RDF>
  </metadata>
  <defs
     id="defs10" />
  <sodipodi:namedview
     pagecolor="#ffffff"
     bordercolor="#666666"
     borderopacity="1"
     objecttolerance="10"
     gridtolerance="10"
     guidetolerance="10"
     inkscape:pageopacity="0"
     inkscape:pageshadow="2"
     inkscape:window-width="1320"
     inkscape:window-height="1002"
     id="namedview8"
     showgrid="false"
     inkscape:zoom="9.15625"
     inkscape:cx="10.5"
     inkscape:cy="16"
     inkscape:window-x="83"
     inkscape:window-y="31"
     inkscape:window-maximized="0"
     inkscape:current-layer="svg2" />
  <g
     id="g4" />
  <path
     d="m 14.089,14.857 q 0,0.929 0.661,1.625 l 11.643,11.625 q 0.661,0.661 1.607,0.661 0.946,0 1.607,-0.661 l 1.357,-1.339 q 0.661,-0.696 0.661,-1.625 0,-0.946 -0.661,-1.607 l -8.679,-8.679 8.679,-8.661 q 0.661,-0.696 0.661,-1.625 0,-0.946 -0.661,-1.607 L 29.607,1.625 Q 28.964,0.946 28,0.946 q -0.964,0 -1.607,0.679 L 14.75,13.25 q -0.661,0.661 -0.661,1.607 z"
     id="path6"
     style="fill:#ffffff"
     inkscape:connector-curvature="0" />
  <path
     d="m 2.7951399,14.853243 q 0,0.929 0.661,1.625 l 11.6430001,11.625 q 0.661,0.661 1.607,0.661 0.946,0 1.607,-0.661 l 1.357,-1.339 q 0.661,-0.696 0.661,-1.625 0,-0.946 -0.661,-1.607 l -8.679,-8.679 8.679,-8.6610007 q 0.661,-0.696 0.661,-1.625 0,-0.946 -0.661,-1.607 l -1.357,-1.339 q -0.643,-0.67899995 -1.607,-0.67899995 -0.964,0 -1.607,0.67899995 L 3.4561399,13.246242 q -0.661,0.661 -0.661,1.607001 z"
     id="path6-1"
     style="fill:#ffffff"
     inkscape:connector-curvature="0" />
</svg>
