<?xml version="1.0" encoding="UTF-8" standalone="no"?>
<!-- Generated by IcoMoon.io -->

<svg
   xmlns:dc="http://purl.org/dc/elements/1.1/"
   xmlns:cc="http://creativecommons.org/ns#"
   xmlns:rdf="http://www.w3.org/1999/02/22-rdf-syntax-ns#"
   xmlns:svg="http://www.w3.org/2000/svg"
   xmlns="http://www.w3.org/2000/svg"
   xmlns:sodipodi="http://sodipodi.sourceforge.net/DTD/sodipodi-0.dtd"
   xmlns:inkscape="http://www.inkscape.org/namespaces/inkscape"
   version="1.1"
   width="32"
   height="32"
   viewBox="0 0 32 32"
   id="svg2"
   inkscape:version="0.48.1 "
   sodipodi:docname="circle-o.svg">
  <metadata
     id="metadata12">
    <rdf:RDF>
      <cc:Work
         rdf:about="">
        <dc:format>image/svg+xml</dc:format>
        <dc:type
           rdf:resource="http://purl.org/dc/dcmitype/StillImage" />
      </cc:Work>
    </rdf:RDF>
  </metadata>
  <defs
     id="defs10" />
  <sodipodi:namedview
     pagecolor="#ffffff"
     bordercolor="#666666"
     borderopacity="1"
     objecttolerance="10"
     gridtolerance="10"
     guidetolerance="10"
     inkscape:pageopacity="0"
     inkscape:pageshadow="2"
     inkscape:window-width="640"
     inkscape:window-height="480"
     id="namedview8"
     showgrid="false"
     showguides="true"
     inkscape:guide-bbox="true"
     inkscape:zoom="9.15625"
     inkscape:cx="16"
     inkscape:cy="16"
     inkscape:window-x="0"
     inkscape:window-y="0"
     inkscape:window-maximized="0"
     inkscape:current-layer="svg2" />
  <g
     id="g4" />
  <path
     d="m 16.007515,6.286 q -2.643,0 -4.875,1.304 -2.2319996,1.304 -3.5359996,3.536 -1.304,2.232 -1.304,4.875 0,2.643 1.304,4.875 1.304,2.232 3.5359996,3.536 2.232,1.304 4.875,1.304 2.643,0 4.875,-1.304 2.232,-1.304 3.536,-3.536 1.304,-2.232 1.304,-4.875 0,-2.643 -1.304,-4.875 -1.304,-2.232 -3.536,-3.536 -2.232,-1.304 -4.875,-1.304 z m 13.715,9.714 q 0,3.732 -1.839,6.884 -1.839,3.152 -4.991,4.991 -3.152,1.839 -6.884,1.839 -3.732,0 -6.8839996,-1.839 -3.152,-1.839 -4.991,-4.991 -1.839,-3.152 -1.839,-6.884 0,-3.732 1.839,-6.884 1.839,-3.152 4.991,-4.991 3.1519996,-1.839 6.8839996,-1.839 3.732,0 6.884,1.839 3.152,1.839 4.991,4.991 1.839,3.152 1.839,6.884 z"
     id="path6"
     inkscape:connector-curvature="0"
     style="fill:#cccccc" />
</svg>
