<?xml version="1.0" encoding="UTF-8" standalone="no"?>
<!-- Generated by IcoMoon.io -->

<svg
   xmlns:dc="http://purl.org/dc/elements/1.1/"
   xmlns:cc="http://creativecommons.org/ns#"
   xmlns:rdf="http://www.w3.org/1999/02/22-rdf-syntax-ns#"
   xmlns:svg="http://www.w3.org/2000/svg"
   xmlns="http://www.w3.org/2000/svg"
   xmlns:sodipodi="http://sodipodi.sourceforge.net/DTD/sodipodi-0.dtd"
   xmlns:inkscape="http://www.inkscape.org/namespaces/inkscape"
   version="1.1"
   width="32"
   height="32"
   viewBox="0 0 32 32"
   id="svg3114"
   inkscape:version="0.48.1 "
   sodipodi:docname="bookmark-o.svg">
  <metadata
     id="metadata3124">
    <rdf:RDF>
      <cc:Work
         rdf:about="">
        <dc:format>image/svg+xml</dc:format>
        <dc:type
           rdf:resource="http://purl.org/dc/dcmitype/StillImage" />
        <dc:title></dc:title>
      </cc:Work>
    </rdf:RDF>
  </metadata>
  <defs
     id="defs3122" />
  <sodipodi:namedview
     pagecolor="#ffffff"
     bordercolor="#666666"
     borderopacity="1"
     objecttolerance="10"
     gridtolerance="10"
     guidetolerance="10"
     inkscape:pageopacity="0"
     inkscape:pageshadow="2"
     inkscape:window-width="797"
     inkscape:window-height="592"
     id="namedview3120"
     showgrid="false"
     inkscape:zoom="9.15625"
     inkscape:cx="11.5"
     inkscape:cy="16"
     inkscape:window-x="1823"
     inkscape:window-y="218"
     inkscape:window-maximized="0"
     inkscape:current-layer="svg3114" />
  <g
     id="g3116" />
  <path
     d="M 27.407551,3.6097883 H 4.4035655 V 28.1198 l 11.5019925,-9.689516 1.998979,1.677541 9.503014,8.011975 V 3.6097883 z M 27.678022,1.084635 q 0.517043,0 0.988796,0.1779211 0.740969,0.2563832 1.180015,0.8089331 0.439045,0.55255 0.437788,1.2233457 V 28.732025 q 0,0.670795 -0.437788,1.223346 -0.437788,0.55255 -1.180015,0.808934 -0.426465,0.158028 -0.988796,0.158028 -1.078115,0 -1.864371,-0.631011 L 15.906816,21.92461 5.9999811,30.291322 q -0.8089008,0.650904 -1.8643718,0.650904 -0.5170425,0 -0.9887966,-0.177921 Q 2.4058444,30.507921 1.9667987,29.955371 1.5277529,29.40282 1.5290109,28.732025 V 3.2948349 q 0,-0.6707957 0.4377878,-1.2233457 Q 2.4045864,1.5189393 3.1468127,1.2625561 3.6185668,1.084635 4.1356093,1.084635 H 27.678022 z"
     id="path3118"
     inkscape:connector-curvature="0"
     style="fill:#000000" />
</svg>
