<?xml version="1.0" encoding="UTF-8" standalone="no"?>
<!-- Generated by IcoMoon.io -->

<svg
   xmlns:dc="http://purl.org/dc/elements/1.1/"
   xmlns:cc="http://creativecommons.org/ns#"
   xmlns:rdf="http://www.w3.org/1999/02/22-rdf-syntax-ns#"
   xmlns:svg="http://www.w3.org/2000/svg"
   xmlns="http://www.w3.org/2000/svg"
   xmlns:sodipodi="http://sodipodi.sourceforge.net/DTD/sodipodi-0.dtd"
   xmlns:inkscape="http://www.inkscape.org/namespaces/inkscape"
   version="1.1"
   width="32"
   height="32"
   viewBox="0 0 32 32"
   id="svg2"
   inkscape:version="0.48.1 "
   sodipodi:docname="flash_w.svg">
  <metadata
     id="metadata12">
    <rdf:RDF>
      <cc:Work
         rdf:about="">
        <dc:format>image/svg+xml</dc:format>
        <dc:type
           rdf:resource="http://purl.org/dc/dcmitype/StillImage" />
        <dc:title />
      </cc:Work>
    </rdf:RDF>
  </metadata>
  <defs
     id="defs10" />
  <sodipodi:namedview
     pagecolor="#ffffff"
     bordercolor="#666666"
     borderopacity="1"
     objecttolerance="10"
     gridtolerance="10"
     guidetolerance="10"
     inkscape:pageopacity="0"
     inkscape:pageshadow="2"
     inkscape:window-width="640"
     inkscape:window-height="646"
     id="namedview8"
     showgrid="false"
     inkscape:zoom="9.15625"
     inkscape:cx="8"
     inkscape:cy="7.6164015"
     inkscape:window-x="2117"
     inkscape:window-y="122"
     inkscape:window-maximized="0"
     inkscape:current-layer="svg2" />
  <rect
     style="fill:#000000;fill-opacity:1;fill-rule:nonzero;stroke:#000000;stroke-width:2.98950315;stroke-miterlimit:4;stroke-opacity:1;stroke-dasharray:none"
     id="rect3017"
     width="29.090147"
     height="29.054853"
     x="2.0556097"
     y="36.803631" />
  <g
     id="g4" />
  <path
     d="m 25.076395,9.8941269 q 0.338525,0.3123871 0.131824,0.6877751 L 15.038758,28.660931 q -0.244666,0.390264 -0.790946,0.390264 -0.07488,0 -0.263649,-0.0315 -0.320597,-0.07788 -0.479841,-0.296636 -0.159243,-0.218758 -0.08437,-0.469017 l 3.710066,-12.625831 -7.6458153,1.578557 q -0.074876,0.01575 -0.2256829,0.01575 -0.3385251,0 -0.5842457,-0.171506 Q 8.335752,16.816503 8.429611,16.441989 L 12.214553,3.5510232 q 0.07488,-0.2187579 0.301614,-0.359638 0.226738,-0.1408801 0.527297,-0.1408801 h 6.176764 q 0.357508,0 0.602174,0.195132 0.244666,0.1951321 0.244666,0.4611417 0,0.1251295 -0.09386,0.2808852 l -3.220733,7.234762 7.457042,-1.5313061 q 0.150807,-0.0315 0.225683,-0.0315 0.357508,0 0.640139,0.234508 z"
     id="path6"
     style="fill:#ffffff"
     inkscape:connector-curvature="0" />
  <rect
     style="fill:none;stroke:#ffffff;stroke-width:1.99999988;stroke-miterlimit:4;stroke-opacity:1;stroke-dasharray:none"
     id="rect3037"
     width="29.488052"
     height="29.269617"
     x="1.5290112"
     y="1.4197994"
     ry="4.6416383"
     rx="4.1501708" />
</svg>
