<?xml version="1.0" encoding="UTF-8" standalone="no"?>
<!-- Generated by IcoMoon.io -->

<svg
   xmlns:dc="http://purl.org/dc/elements/1.1/"
   xmlns:cc="http://creativecommons.org/ns#"
   xmlns:rdf="http://www.w3.org/1999/02/22-rdf-syntax-ns#"
   xmlns:svg="http://www.w3.org/2000/svg"
   xmlns="http://www.w3.org/2000/svg"
   xmlns:sodipodi="http://sodipodi.sourceforge.net/DTD/sodipodi-0.dtd"
   xmlns:inkscape="http://www.inkscape.org/namespaces/inkscape"
   version="1.1"
   width="32"
   height="32"
   viewBox="0 0 32 32"
   id="svg10694"
   inkscape:version="0.48.1 "
   sodipodi:docname="Frist verlängern.svg">
  <metadata
     id="metadata10704">
    <rdf:RDF>
      <cc:Work
         rdf:about="">
        <dc:format>image/svg+xml</dc:format>
        <dc:type
           rdf:resource="http://purl.org/dc/dcmitype/StillImage" />
      </cc:Work>
    </rdf:RDF>
  </metadata>
  <defs
     id="defs10702" />
  <sodipodi:namedview
     pagecolor="#ffffff"
     bordercolor="#666666"
     borderopacity="1"
     objecttolerance="10"
     gridtolerance="10"
     guidetolerance="10"
     inkscape:pageopacity="0"
     inkscape:pageshadow="2"
     inkscape:window-width="907"
     inkscape:window-height="778"
     id="namedview10700"
     showgrid="false"
     inkscape:zoom="9.15625"
     inkscape:cx="15"
     inkscape:cy="16"
     inkscape:window-x="1847"
     inkscape:window-y="66"
     inkscape:window-maximized="0"
     inkscape:current-layer="svg10694" />
  <g
     id="g10696" />
  <path
     d="M 6.7802741,25.680928 H 10.486671 V 22.029925 H 6.7802741 v 3.651003 z m 4.5294009,0 h 4.117898 v -3.651003 h -4.117898 v 3.651003 z M 6.7802741,21.219222 H 10.486671 V 17.162867 H 6.7802741 v 4.056355 z m 4.5294009,0 h 4.117898 v -4.056355 h -4.117898 v 4.056355 z M 6.7802741,16.350744 H 10.486671 V 12.699741 H 6.7802741 v 3.651003 z m 9.4717439,9.330184 h 4.117898 v -3.651003 h -4.117898 v 3.651003 z m -4.942343,-9.330184 h 4.117898 v -3.651003 h -4.117898 v 3.651003 z m 9.883966,9.330184 h 3.706397 v -3.651003 h -3.706397 v 3.651003 z m -4.941623,-4.461706 h 4.117898 v -4.056355 h -4.117898 v 4.056355 z M 11.721897,10.266212 V 6.6152082 q 0,-0.1646963 -0.122514,-0.2853788 Q 11.47687,6.2091468 11.309675,6.2091468 H 10.48595 q -0.167195,0 -0.289708,0.1206826 -0.122513,0.1206825 -0.122513,0.2853788 v 3.6510038 q 0,0.164696 0.122513,0.285379 0.122513,0.120683 0.289708,0.120683 h 0.823725 q 0.167195,0 0.289708,-0.120683 0.122514,-0.120683 0.122514,-0.285379 z m 9.471744,10.95301 h 3.706397 v -4.056355 h -3.706397 v 4.056355 z m -4.941623,-4.868478 h 4.117898 v -3.651003 h -4.117898 v 3.651003 z m 4.941623,0 h 3.706397 v -3.651003 h -3.706397 v 3.651003 z m 0.411501,-6.084532 V 6.6152082 q 0,-0.1646963 -0.122514,-0.2853788 Q 21.360115,6.2091468 21.19292,6.2091468 h -0.823724 q -0.167195,0 -0.289709,0.1206826 -0.122514,0.1206825 -0.122514,0.2853788 v 3.6510038 q 0,0.164696 0.122514,0.285379 0.122514,0.120683 0.289709,0.120683 h 0.823724 q 0.167195,0 0.289708,-0.120683 0.122514,-0.120683 0.122514,-0.285379 z M 26.546764,9.4547983 V 25.680928 q 0,0.659496 -0.489333,1.140806 -0.489334,0.48131 -1.158115,0.48202 H 6.7795535 q -0.6695008,0 -1.158114,-0.48202 -0.488613,-0.482021 -0.4893337,-1.140806 V 9.4547983 q 0,-0.6594945 0.4893337,-1.1408051 0.4893338,-0.4813106 1.158114,-0.4820205 H 8.4270013 V 6.6152082 q 0,-0.8369692 0.6046405,-1.4325733 0.604641,-0.5956041 1.4543082,-0.5956041 h 0.823725 q 0.849668,0 1.454308,0.5956041 0.604641,0.5956041 0.604641,1.4325733 v 1.2167645 h 4.941623 V 6.6152082 q 0,-0.8369692 0.60464,-1.4325733 0.604641,-0.5956041 1.454309,-0.5956041 h 0.823724 q 0.849667,0 1.454309,0.5956041 0.60464,0.5956041 0.60464,1.4325733 v 1.2167645 h 1.647447 q 0.669501,0 1.158115,0.4820205 0.488613,0.4820205 0.489333,1.1408051 z"
     id="path10698"
     inkscape:connector-curvature="0"
     style="fill:#000000" />
  <rect
     style="fill:none;stroke:#000000;stroke-width:1.99999988;stroke-miterlimit:4;stroke-opacity:1;stroke-dasharray:none"
     id="rect3037"
     width="29.488052"
     height="29.269617"
     x="1.2013665"
     y="1.4197996"
     ry="4.6416383"
     rx="4.1501708" />
</svg>
