<?xml version="1.0" encoding="UTF-8" standalone="no"?>
<!-- Generated by IcoMoon.io -->

<svg
   xmlns:dc="http://purl.org/dc/elements/1.1/"
   xmlns:cc="http://creativecommons.org/ns#"
   xmlns:rdf="http://www.w3.org/1999/02/22-rdf-syntax-ns#"
   xmlns:svg="http://www.w3.org/2000/svg"
   xmlns="http://www.w3.org/2000/svg"
   xmlns:sodipodi="http://sodipodi.sourceforge.net/DTD/sodipodi-0.dtd"
   xmlns:inkscape="http://www.inkscape.org/namespaces/inkscape"
   version="1.1"
   width="32"
   height="32"
   viewBox="0 0 32 32"
   id="svg2"
   inkscape:version="0.48.1 "
   sodipodi:docname="newspaper.svg">
  <metadata
     id="metadata12">
    <rdf:RDF>
      <cc:Work
         rdf:about="">
        <dc:format>image/svg+xml</dc:format>
        <dc:type
           rdf:resource="http://purl.org/dc/dcmitype/StillImage" />
      </cc:Work>
    </rdf:RDF>
  </metadata>
  <defs
     id="defs10" />
  <sodipodi:namedview
     pagecolor="#ffffff"
     bordercolor="#666666"
     borderopacity="1"
     objecttolerance="10"
     gridtolerance="10"
     guidetolerance="10"
     inkscape:pageopacity="0"
     inkscape:pageshadow="2"
     inkscape:window-width="640"
     inkscape:window-height="614"
     id="namedview8"
     showgrid="false"
     inkscape:zoom="9.15625"
     inkscape:cx="16"
     inkscape:cy="16"
     inkscape:window-x="2089"
     inkscape:window-y="235"
     inkscape:window-maximized="0"
     inkscape:current-layer="svg2" />
  <g
     id="g4" />
  <path
     d="M25.6 1.6h-19.2c-1.76 0-3.2 1.44-3.2 3.2v22.4c0 1.76 1.44 3.2 3.2 3.2h19.2c1.762 0 3.2-1.44 3.2-3.2v-22.4c0-1.76-1.438-3.2-3.2-3.2zM25.6 27.2h-19.2v-22.4h19.2v22.4zM17.6 19.2h-8v1.6h8v-1.6zM22.4 12.8h-6.4v1.6h6.4v-1.6zM16 11.2h6.4v-3.2h-6.4v3.2zM14.4 8h-4.8v6.4h4.8v-6.4zM12.8 16h-3.2v1.6h3.2v-1.6zM14.4 17.6h8v-1.6h-8v1.6zM22.4 22.4h-12.8v1.6h12.8v-1.6zM19.2 20.8h3.2v-1.6h-3.2v1.6z"
     fill="#000000"
     id="path6"
     style="fill:#cccccc" />
</svg>
