<?xml version="1.0" encoding="UTF-8" standalone="no"?>
<!-- Generated by IcoMoon.io -->

<svg
   xmlns:dc="http://purl.org/dc/elements/1.1/"
   xmlns:cc="http://creativecommons.org/ns#"
   xmlns:rdf="http://www.w3.org/1999/02/22-rdf-syntax-ns#"
   xmlns:svg="http://www.w3.org/2000/svg"
   xmlns="http://www.w3.org/2000/svg"
   xmlns:sodipodi="http://sodipodi.sourceforge.net/DTD/sodipodi-0.dtd"
   xmlns:inkscape="http://www.inkscape.org/namespaces/inkscape"
   version="1.1"
   width="32"
   height="32"
   viewBox="0 0 32 32"
   id="svg2"
   inkscape:version="0.48.1 "
   sodipodi:docname="print_w.svg">
  <metadata
     id="metadata12">
    <rdf:RDF>
      <cc:Work
         rdf:about="">
        <dc:format>image/svg+xml</dc:format>
        <dc:type
           rdf:resource="http://purl.org/dc/dcmitype/StillImage" />
        <dc:title />
      </cc:Work>
    </rdf:RDF>
  </metadata>
  <defs
     id="defs10" />
  <sodipodi:namedview
     pagecolor="#ffffff"
     bordercolor="#666666"
     borderopacity="1"
     objecttolerance="10"
     gridtolerance="10"
     guidetolerance="10"
     inkscape:pageopacity="0"
     inkscape:pageshadow="2"
     inkscape:window-width="640"
     inkscape:window-height="667"
     id="namedview8"
     showgrid="false"
     inkscape:zoom="9.15625"
     inkscape:cx="15"
     inkscape:cy="8.7784904"
     inkscape:window-x="893"
     inkscape:window-y="157"
     inkscape:window-maximized="0"
     inkscape:current-layer="svg2" />
  <rect
     style="fill:#000000;fill-opacity:1;fill-rule:nonzero;stroke:#000000;stroke-width:2.98950315;stroke-miterlimit:4;stroke-opacity:1;stroke-dasharray:none"
     id="rect3017"
     width="29.090147"
     height="29.054853"
     x="1.4003185"
     y="36.366768" />
  <g
     id="g4" />
  <path
     d="M 9.646079,26.045638 H 23.235005 V 21.984252 H 9.646079 v 4.061386 z m 0,-10.154798 H 23.235005 V 9.7983182 h -2.426472 q -0.606406,0 -1.03106,-0.4442562 Q 19.35282,8.909807 19.35282,8.2754093 V 5.7369322 H 9.646079 V 15.891729 z m 17.471963,1.015569 q 0,-0.412269 -0.287916,-0.714363 -0.287916,-0.302093 -0.682843,-0.301206 -0.394928,8.89e-4 -0.682845,0.301206 -0.287914,0.300317 -0.287914,0.714363 0,0.414047 0.287914,0.714364 0.287917,0.300316 0.682845,0.301205 0.394927,8.88e-4 0.682843,-0.301205 0.287916,-0.302094 0.287916,-0.714364 z m 1.940668,0 v 6.600752 q 0,0.206135 -0.144383,0.357181 -0.144382,0.151047 -0.341422,0.151047 h -3.397231 v 2.538477 q 0,0.634398 -0.424655,1.078653 -0.424652,0.444256 -1.031058,0.444256 H 9.1602745 q -0.6064052,0 -1.0310592,-0.444256 -0.424654,-0.444255 -0.424654,-1.078653 V 24.015389 H 4.3073296 q -0.1970393,0 -0.3414218,-0.151047 -0.1443822,-0.151046 -0.1443822,-0.357181 v -6.600752 q 0,-1.253689 0.8569517,-2.150197 0.8569516,-0.896508 2.0553251,-0.896508 H 7.7045613 V 5.2287037 q 0,-0.6343971 0.424654,-1.0786528 0.424654,-0.4442557 1.0310592,-0.4442557 H 19.35197 q 0.606406,0 1.334262,0.3171985 0.727857,0.3171986 1.15251,0.7614543 l 2.305023,2.4114201 q 0.424655,0.4442556 0.727857,1.2057099 0.303204,0.7614545 0.303204,1.3958523 v 4.0613857 h 0.970759 q 1.198373,0 2.055324,0.896508 0.856952,0.896507 0.856952,2.150198 z"
     id="path6"
     style="fill:#ffffff"
     inkscape:connector-curvature="0" />
  <rect
     style="fill:none;stroke:#ffffff;stroke-width:1.99999988;stroke-miterlimit:4;stroke-opacity:1;stroke-dasharray:none"
     id="rect3037"
     width="29.488052"
     height="29.269617"
     x="1.5290109"
     y="1.6382288"
     ry="4.6416383"
     rx="4.1501708" />
</svg>
