<?xml version="1.0" encoding="UTF-8" standalone="no"?>
<!-- Generated by IcoMoon.io -->

<svg
   xmlns:dc="http://purl.org/dc/elements/1.1/"
   xmlns:cc="http://creativecommons.org/ns#"
   xmlns:rdf="http://www.w3.org/1999/02/22-rdf-syntax-ns#"
   xmlns:svg="http://www.w3.org/2000/svg"
   xmlns="http://www.w3.org/2000/svg"
   xmlns:sodipodi="http://sodipodi.sourceforge.net/DTD/sodipodi-0.dtd"
   xmlns:inkscape="http://www.inkscape.org/namespaces/inkscape"
   version="1.1"
   width="32"
   height="32"
   viewBox="0 0 32 32"
   id="svg2"
   inkscape:version="0.48.1 "
   sodipodi:docname="settings_w.svg">
  <metadata
     id="metadata12">
    <rdf:RDF>
      <cc:Work
         rdf:about="">
        <dc:format>image/svg+xml</dc:format>
        <dc:type
           rdf:resource="http://purl.org/dc/dcmitype/StillImage" />
        <dc:title />
      </cc:Work>
    </rdf:RDF>
  </metadata>
  <defs
     id="defs10" />
  <sodipodi:namedview
     pagecolor="#ffffff"
     bordercolor="#666666"
     borderopacity="1"
     objecttolerance="10"
     gridtolerance="10"
     guidetolerance="10"
     inkscape:pageopacity="0"
     inkscape:pageshadow="2"
     inkscape:window-width="880"
     inkscape:window-height="806"
     id="namedview8"
     showgrid="false"
     inkscape:zoom="9.15625"
     inkscape:cx="16"
     inkscape:cy="4.8214489"
     inkscape:window-x="1879"
     inkscape:window-y="231"
     inkscape:window-maximized="0"
     inkscape:current-layer="svg2" />
  <rect
     style="fill:#000000;fill-opacity:1;fill-rule:nonzero;stroke:#000000;stroke-width:2.98950315;stroke-miterlimit:4;stroke-opacity:1;stroke-dasharray:none"
     id="rect3017"
     width="29.090147"
     height="29.054853"
     x="2.1648245"
     y="43.574963" />
  <g
     id="g4" />
  <path
     d="m 61.73746,13.141762 -2.43654,-0.488263 c -0.122463,-0.35228 -0.267193,-0.694222 -0.42703,-1.025033 L 60.254384,9.5577258 C 60.675052,8.9271199 60.591555,8.0865772 60.05558,7.5513972 L 58.525585,6.0214027 C 58.217837,5.7136544 57.811482,5.5554065 57.39956,5.5554065 c -0.304567,0 -0.612316,0.087473 -0.880303,0.2671923 L 54.448516,7.2022976 C 54.116116,7.0416642 53.774173,6.8985254 53.421892,6.7760622 L 52.93363,4.3387268 C 52.78572,3.5944051 52.132053,3.0600204 51.374213,3.0600204 h -2.162986 c -0.757841,0 -1.410713,0.53518 -1.559418,1.2787064 L 47.163547,6.7760622 C 46.811266,6.8985254 46.469323,7.0424594 46.138514,7.2022976 L 44.068569,5.8225988 C 43.798991,5.6428802 43.492037,5.5554065 43.186674,5.5554065 c -0.411125,0 -0.817481,0.1582479 -1.125229,0.4659962 L 40.532246,7.5513972 C 39.99627,8.0873724 39.912773,8.9271199 40.333442,9.5577258 l 1.379699,2.0707402 c -0.160634,0.331606 -0.303773,0.673549 -0.426236,1.025829 l -2.43813,0.487467 c -0.743527,0.148705 -1.278707,0.801578 -1.278707,1.559417 v 2.162986 c 0,0.757841 0.53518,1.411508 1.278707,1.559418 l 2.437335,0.489058 c 0.122463,0.35228 0.266397,0.694222 0.426235,1.025033 l -1.378903,2.07074 c -0.420669,0.630606 -0.337172,1.471149 0.198804,2.006329 l 1.529994,1.529994 c 0.307749,0.307748 0.714104,0.465996 1.12523,0.465996 0.305363,0 0.613111,-0.08826 0.881099,-0.267191 l 2.070741,-1.380494 c 0.331604,0.161428 0.673547,0.304567 1.025828,0.42703 l 0.487466,2.43654 c 0.148706,0.744321 0.801578,1.279501 1.559417,1.279501 h 2.162988 c 0.757839,0 1.411507,-0.535975 1.559417,-1.279501 l 0.489057,-2.43654 c 0.352281,-0.122463 0.694224,-0.267193 1.025033,-0.42703 l 2.070741,1.380494 c 0.268783,0.178923 0.57653,0.267191 0.880303,0.267191 0.411922,0 0.818277,-0.158248 1.126025,-0.465996 l 1.529995,-1.529994 c 0.535975,-0.535976 0.619472,-1.375723 0.198804,-2.006329 l -1.380494,-2.07074 c 0.161428,-0.3324 0.304567,-0.674343 0.42703,-1.026624 l 2.43654,-0.487467 c 0.743527,-0.147115 1.279502,-0.801577 1.279502,-1.559418 v -2.162986 c 0,-0.757839 -0.535975,-1.410712 -1.279502,-1.559417 z m -2.74906,4.210666 c -0.552675,0.110532 -1.005152,0.504961 -1.189642,1.037756 -0.102578,0.293434 -0.221865,0.578121 -0.355461,0.854061 -0.247312,0.508143 -0.205165,1.107735 0.107353,1.576117 l 1.380494,2.070741 -1.529995,1.529995 -2.07074,-1.380494 c -0.265602,-0.177333 -0.573351,-0.267193 -0.881895,-0.267193 -0.236178,0 -0.473948,0.05249 -0.692632,0.158248 -0.276735,0.133596 -0.560627,0.254469 -0.855652,0.357051 -0.531204,0.18449 -0.925631,0.636969 -1.036165,1.189643 l -0.489058,2.438131 H 49.21202 L 48.724554,24.478353 C 48.614022,23.925679 48.219592,23.4732 47.687592,23.28871 c -0.293433,-0.102578 -0.578916,-0.221864 -0.854855,-0.355461 -0.219481,-0.107353 -0.456455,-0.159838 -0.693428,-0.159838 -0.309339,0 -0.616292,0.08986 -0.881894,0.267193 l -2.070741,1.380494 -1.529994,-1.529995 1.379699,-2.070741 c 0.312519,-0.469176 0.353076,-1.068769 0.108945,-1.574527 -0.133596,-0.276734 -0.253674,-0.560626 -0.356257,-0.855651 -0.18449,-0.531204 -0.637763,-0.92563 -1.189642,-1.036166 l -2.437336,-0.489057 -0.0016,-2.163782 2.438131,-0.487467 c 0.551889,-0.110535 1.005162,-0.504961 1.189652,-1.036961 0.102583,-0.293434 0.22107,-0.578916 0.355461,-0.854856 0.246517,-0.507348 0.205165,-1.10694 -0.108149,-1.575323 l -1.378904,-2.0707401 1.5292,-1.5299945 2.07074,1.3796988 c 0.265602,0.1773331 0.573351,0.2671924 0.881894,0.2671924 0.236179,0 0.473154,-0.052488 0.692633,-0.1582479 0.27594,-0.1335962 0.560627,-0.2536737 0.854857,-0.3562565 0.531999,-0.18449 0.926426,-0.6377628 1.03696,-1.1896424 l 0.488263,-2.4373353 2.162986,-7.952e-4 0.487467,2.4381305 c 0.110532,0.5518796 0.504962,1.0051524 1.037757,1.1896424 0.293433,0.1025826 0.578121,0.2210698 0.854061,0.3554612 0.220274,0.1065585 0.456453,0.1590432 0.694222,0.1590432 0.309339,0 0.616292,-0.089861 0.881894,-0.2671924 l 2.070742,-1.3796988 1.529993,1.5299945 -1.380494,2.0707401 c -0.312519,0.469178 -0.352279,1.067975 -0.108948,1.574527 0.133596,0.27594 0.254469,0.560628 0.357051,0.854857 0.18449,0.531999 0.636969,0.926426 1.189643,1.036962 l 2.43654,0.488261 0.0024,2.162986 -2.43813,0.488263 z m -8.694885,-7.136264 c -3.073508,0 -5.566508,2.493001 -5.566508,5.566509 0,3.074302 2.493,5.566508 5.566508,5.566508 3.073508,0 5.566508,-2.493001 5.566508,-5.566508 0,-3.073508 -2.493,-5.566509 -5.566508,-5.566509 z m 0,10.437998 c -2.689419,0 -4.870695,-2.18207 -4.870695,-4.870695 0,-2.689419 2.181276,-4.870693 4.870695,-4.870693 2.688623,0 4.870695,2.181274 4.870695,4.870693 0,2.688625 -2.182072,4.870695 -4.870695,4.870695 z m 0,-8.052351 c -1.757426,0 -3.180862,1.423435 -3.180862,3.180862 0,1.75663 1.423436,3.180861 3.180862,3.180861 1.75663,0 3.180862,-1.424231 3.180862,-3.180861 0,-1.756632 -1.424232,-3.180862 -3.180862,-3.180862 z m 0,5.567303 c -1.316877,0 -2.385646,-1.068769 -2.385646,-2.385647 0,-1.316876 1.068769,-2.385646 2.385646,-2.385646 1.316877,0 2.385646,1.06877 2.385646,2.385646 0,1.316878 -1.068769,2.385647 -2.385646,2.385647 z"
     id="path6"
     style="fill:#ffffff"
     inkscape:connector-curvature="0" />
  <rect
     style="fill:none;stroke:#ffffff;stroke-width:1.99999988;stroke-miterlimit:4;stroke-opacity:1;stroke-dasharray:none"
     id="rect3037"
     width="29.488052"
     height="29.269617"
     x="1.4197959"
     y="1.4198"
     ry="4.6416383"
     rx="4.1501708" />
  <path
     d="m 26.715968,18.757088 c -1.358099,-2.352205 -0.541136,-5.366068 1.82401,-6.736299 L 25.99607,7.6148532 c -0.726368,0.4262765 -1.571642,0.6705563 -2.473536,0.6705563 -2.718624,0 -4.921996,-2.2179317 -4.921996,-4.9543515 h -5.087007 c 0.0065,0.8444641 -0.203836,1.7010614 -0.655996,2.4832423 -1.3581,2.3522048 -4.3768166,3.1521809 -6.7451986,1.7884198 l -2.543099,4.4059359 c 0.73203,0.41657 1.366187,1.025652 1.81673,1.807023 1.355672,2.34816 0.543563,5.35717 -1.812686,6.72902 l 2.543908,4.405935 c 0.723942,-0.422232 1.565171,-0.663276 2.462212,-0.663276 2.7097256,0 4.9074366,2.204181 4.9211876,4.927659 h 5.087007 c -0.0024,-0.836376 0.209498,-1.682458 0.655997,-2.457359 1.355672,-2.34816 4.367108,-3.149754 6.733873,-1.794891 l 2.543908,-4.405935 c -0.727177,-0.41657 -1.35729,-1.024034 -1.805406,-1.800553 z m -10.661764,2.757451 c -2.894151,0 -5.240694,-2.346543 -5.240694,-5.240693 0,-2.89415 2.346543,-5.240692 5.240694,-5.240692 2.89415,0 5.240692,2.346542 5.240692,5.240692 0,2.89415 -2.346542,5.240693 -5.240692,5.240693 z"
     id="path9267"
     inkscape:connector-curvature="0"
     style="fill:#ffffff" />
</svg>
