<?xml version="1.0" encoding="UTF-8" standalone="no"?>
<!-- Generated by IcoMoon.io -->

<svg
   xmlns:dc="http://purl.org/dc/elements/1.1/"
   xmlns:cc="http://creativecommons.org/ns#"
   xmlns:rdf="http://www.w3.org/1999/02/22-rdf-syntax-ns#"
   xmlns:svg="http://www.w3.org/2000/svg"
   xmlns="http://www.w3.org/2000/svg"
   xmlns:sodipodi="http://sodipodi.sourceforge.net/DTD/sodipodi-0.dtd"
   xmlns:inkscape="http://www.inkscape.org/namespaces/inkscape"
   version="1.1"
   width="30"
   height="32"
   viewBox="0 0 30 32"
   id="svg2"
   inkscape:version="0.48.1 "
   sodipodi:docname="star.svg">
  <metadata
     id="metadata12">
    <rdf:RDF>
      <cc:Work
         rdf:about="">
        <dc:format>image/svg+xml</dc:format>
        <dc:type
           rdf:resource="http://purl.org/dc/dcmitype/StillImage" />
      </cc:Work>
    </rdf:RDF>
  </metadata>
  <defs
     id="defs10" />
  <sodipodi:namedview
     pagecolor="#ffffff"
     bordercolor="#666666"
     borderopacity="1"
     objecttolerance="10"
     gridtolerance="10"
     guidetolerance="10"
     inkscape:pageopacity="0"
     inkscape:pageshadow="2"
     inkscape:window-width="640"
     inkscape:window-height="480"
     id="namedview8"
     showgrid="false"
     inkscape:zoom="9.15625"
     inkscape:cx="15"
     inkscape:cy="16"
     inkscape:window-x="0"
     inkscape:window-y="0"
     inkscape:window-maximized="0"
     inkscape:current-layer="svg2" />
  <g
     id="g4" />
  <path
     d="M29.714 11.554q0 0.393-0.464 0.857l-6.482 6.321 1.536 8.929q0.018 0.125 0.018 0.357 0 0.375-0.188 0.634t-0.545 0.259q-0.339 0-0.714-0.214l-8.018-4.214-8.018 4.214q-0.393 0.214-0.714 0.214-0.375 0-0.563-0.259t-0.188-0.634q0-0.107 0.036-0.357l1.536-8.929-6.5-6.321q-0.446-0.482-0.446-0.857 0-0.661 1-0.821l8.964-1.304 4.018-8.125q0.339-0.732 0.875-0.732t0.875 0.732l4.018 8.125 8.964 1.304q1 0.161 1 0.821z"
     fill="#000000"
     id="path6"
     style="fill:#ffffff" />
</svg>
