<?xml version="1.0" encoding="UTF-8" standalone="no"?>
<!-- Generated by IcoMoon.io -->

<svg
   xmlns:dc="http://purl.org/dc/elements/1.1/"
   xmlns:cc="http://creativecommons.org/ns#"
   xmlns:rdf="http://www.w3.org/1999/02/22-rdf-syntax-ns#"
   xmlns:svg="http://www.w3.org/2000/svg"
   xmlns="http://www.w3.org/2000/svg"
   xmlns:sodipodi="http://sodipodi.sourceforge.net/DTD/sodipodi-0.dtd"
   xmlns:inkscape="http://www.inkscape.org/namespaces/inkscape"
   version="1.1"
   width="32"
   height="32"
   viewBox="0 0 32 32"
   id="svg3016"
   inkscape:version="0.48.1 "
   sodipodi:docname="users.svg">
  <metadata
     id="metadata3026">
    <rdf:RDF>
      <cc:Work
         rdf:about="">
        <dc:format>image/svg+xml</dc:format>
        <dc:type
           rdf:resource="http://purl.org/dc/dcmitype/StillImage" />
      </cc:Work>
    </rdf:RDF>
  </metadata>
  <defs
     id="defs3024" />
  <sodipodi:namedview
     pagecolor="#ffffff"
     bordercolor="#666666"
     borderopacity="1"
     objecttolerance="10"
     gridtolerance="10"
     guidetolerance="10"
     inkscape:pageopacity="0"
     inkscape:pageshadow="2"
     inkscape:window-width="914"
     inkscape:window-height="739"
     id="namedview3022"
     showgrid="false"
     inkscape:zoom="9.15625"
     inkscape:cx="16"
     inkscape:cy="16"
     inkscape:window-x="1916"
     inkscape:window-y="145"
     inkscape:window-maximized="0"
     inkscape:current-layer="svg3016" />
  <g
     id="g3018" />
  <path
     d="m 26.738907,27.522445 h -15.5529 c -0.613228,0 -1.110921,-0.497262 -1.110921,-1.10996 0,-1.592419 0.672477,-3.519309 1.799691,-5.155388 0.942062,-1.366728 2.098902,-2.39603 3.348319,-2.996888 -0.551017,-0.500222 -1.025011,-1.110698 -1.400503,-1.806273 -0.602118,-1.115879 -0.919842,-2.406391 -0.919842,-3.730202 0,-1.841051 0.606563,-3.5799866 1.707857,-4.8971377 1.149432,-1.3748689 2.695095,-2.1318608 4.351849,-2.1318608 1.656755,0 3.202417,0.7569919 4.35185,2.1326008 1.101293,1.3171511 1.707857,3.0568267 1.707857,4.8971387 0,1.32455 -0.318464,2.614322 -0.919843,3.730201 -0.375491,0.696313 -0.849485,1.306051 -1.400502,1.806272 1.249417,0.600859 2.406997,1.630161 3.348318,2.996889 1.126474,1.635339 1.799693,3.562968 1.799693,5.155388 0,0.612698 -0.497693,1.10996 -1.110923,1.10996 z M 12.437645,25.302527 H 25.48727 C 25.273972,24.3931 24.827382,23.397097 24.220079,22.51579 23.260982,21.123162 22.06341,20.212256 20.849543,19.951046 20.337777,19.84079 19.972655,19.388667 19.972655,18.866247 v -0.793251 c 0,-0.398846 0.214778,-0.767352 0.561385,-0.964925 1.376803,-0.782151 2.266281,-2.503326 2.266281,-4.385077 0,-2.652061 -1.721928,-4.8098209 -3.837864,-4.8098209 -2.115935,0 -3.837864,2.1577599 -3.837864,4.8098209 0,1.881751 0.889478,3.602926 2.266281,4.385077 0.347349,0.197573 0.561385,0.565339 0.561385,0.964925 v 0.793251 c 0,0.52316 -0.365123,0.974543 -0.876886,1.084799 -1.213868,0.26121 -2.411441,1.172116 -3.370537,2.564744 -0.607305,0.881307 -1.053894,1.87731 -1.267191,2.786737 z M 8.7123551,23.822582 H 6.5127305 c 0.2132969,-0.909426 0.6598873,-1.905429 1.2671911,-2.786737 0.9598361,-1.392627 2.1566687,-2.303534 3.3705354,-2.564744 0.511766,-0.110256 0.876888,-0.562379 0.876888,-1.0848 V 16.59305 c 0,-0.398845 -0.214778,-0.767351 -0.561385,-0.964924 -1.376803,-0.78215 -2.2662808,-2.503327 -2.2662808,-4.385076 0,-2.652062 1.7219288,-4.8098219 3.8378638,-4.8098219 0.144419,0 0.287358,0.01036 0.428076,0.030339 0.610265,-0.6785549 1.301259,-1.2298344 2.051499,-1.6419991 -0.768016,-0.3981052 -1.608613,-0.6082574 -2.479575,-0.6082574 -1.656755,0 -3.2024167,0.7569919 -4.3518501,2.1326007 -1.1012935,1.3171512 -1.7078567,3.0568265 -1.7078567,4.8971388 0,1.32455 0.3177235,2.614322 0.919843,3.730201 0.3754915,0.696313 0.8494847,1.306052 1.4005017,1.806273 -1.2494164,0.600858 -2.4069966,1.63016 -3.3483174,2.996888 -1.1272149,1.635339 -1.7996928,3.562968 -1.7996928,5.155388 0,0.612698 0.4976928,1.10996 1.1109215,1.10996 h 3.0639214 c 0.034068,-0.717774 0.1666383,-1.466626 0.3873415,-2.219918 z"
     id="path3020"
     inkscape:connector-curvature="0"
     style="fill:#000000" />
  <rect
     style="fill:none;stroke:#000000;stroke-width:1.99999988;stroke-miterlimit:4;stroke-opacity:1;stroke-dasharray:none"
     id="rect3037"
     width="29.488052"
     height="29.269617"
     x="1.3105819"
     y="1.3105839"
     ry="4.6416383"
     rx="4.1501708" />
</svg>
